solid 
  facet normal 0.000000E+00 0.000000E+00 1.000000E+00
    outer loop
      vertex -3.477100E+01 2.080000E+00 8.250000E+00
      vertex -3.809300E+01 -3.609300E+01 8.250000E+00
      vertex -3.297100E+01 -3.854000E+00 8.250000E+00
    endloop
  endfacet
  facet normal 0.000000E+00 0.000000E+00 1.000000E+00
    outer loop
      vertex -3.004800E+01 -9.322000E+00 8.250000E+00
      vertex -3.297100E+01 -3.854000E+00 8.250000E+00
      vertex -3.809300E+01 -3.609300E+01 8.250000E+00
    endloop
  endfacet
  facet normal 0.000000E+00 0.000000E+00 1.000000E+00
    outer loop
      vertex -3.004800E+01 -9.322000E+00 8.250000E+00
      vertex -3.809300E+01 -3.609300E+01 8.250000E+00
      vertex -2.611500E+01 -1.411500E+01 8.250000E+00
    endloop
  endfacet
  facet normal 0.000000E+00 -1.000000E+00 0.000000E+00
    outer loop
      vertex 2.962800E+01 5.300300E+01 3.000000E-03
      vertex 2.962800E+01 5.300300E+01 3.502000E+00
      vertex -3.662700E+01 5.300300E+01 3.502000E+00
    endloop
  endfacet
  facet normal 0.000000E+00 -1.000000E+00 0.000000E+00
    outer loop
      vertex 2.962800E+01 5.300300E+01 3.000000E-03
      vertex -3.662700E+01 5.300300E+01 3.502000E+00
      vertex -3.662700E+01 5.300300E+01 3.000000E-03
    endloop
  endfacet
  facet normal 0.000000E+00 0.000000E+00 1.000000E+00
    outer loop
      vertex -2.132200E+01 -1.804800E+01 8.250000E+00
      vertex -3.809300E+01 -3.609300E+01 8.250000E+00
      vertex -1.585400E+01 -2.097100E+01 8.250000E+00
    endloop
  endfacet
  facet normal 0.000000E+00 1.000000E+00 0.000000E+00
    outer loop
      vertex 1.762700E+01 -1.700100E+01 3.502000E+00
      vertex -2.262700E+01 -1.700100E+01 3.502000E+00
      vertex -2.262700E+01 -1.700100E+01 5.252000E+00
    endloop
  endfacet
  facet normal 0.000000E+00 1.000000E+00 0.000000E+00
    outer loop
      vertex 1.762700E+01 -1.700100E+01 3.502000E+00
      vertex -2.262700E+01 -1.700100E+01 5.252000E+00
      vertex 1.762700E+01 -1.700100E+01 5.252000E+00
    endloop
  endfacet
  facet normal 0.000000E+00 0.000000E+00 -1.000000E+00
    outer loop
      vertex 2.962800E+01 -3.675300E+01 3.502000E+00
      vertex -2.262700E+01 -1.700100E+01 3.502000E+00
      vertex 1.762700E+01 -1.700100E+01 3.502000E+00
    endloop
  endfacet
  facet normal 0.000000E+00 0.000000E+00 1.000000E+00
    outer loop
      vertex 3.059300E+01 -3.609300E+01 8.250000E+00
      vertex 8.354000E+00 -2.097100E+01 8.250000E+00
      vertex 2.420000E+00 -2.277100E+01 8.250000E+00
    endloop
  endfacet
  facet normal 0.000000E+00 1.000000E+00 0.000000E+00
    outer loop
      vertex 2.962800E+01 -3.675300E+01 3.502000E+00
      vertex 2.962800E+01 -3.675300E+01 3.000000E-03
      vertex -3.662700E+01 -3.675300E+01 3.000000E-03
    endloop
  endfacet
  facet normal 1.000000E+00 0.000000E+00 0.000000E+00
    outer loop
      vertex -3.662700E+01 5.300300E+01 3.502000E+00
      vertex -3.662700E+01 -3.675300E+01 3.502000E+00
      vertex -3.662700E+01 -3.675300E+01 3.000000E-03
    endloop
  endfacet
  facet normal 1.000000E+00 0.000000E+00 0.000000E+00
    outer loop
      vertex -3.662700E+01 5.300300E+01 3.502000E+00
      vertex -3.662700E+01 -3.675300E+01 3.000000E-03
      vertex -3.662700E+01 5.300300E+01 3.000000E-03
    endloop
  endfacet
  facet normal 0.000000E+00 0.000000E+00 -1.000000E+00
    outer loop
      vertex 2.962800E+01 -3.675300E+01 3.502000E+00
      vertex -3.662700E+01 -3.675300E+01 3.502000E+00
      vertex -2.262700E+01 -1.700100E+01 3.502000E+00
    endloop
  endfacet
  facet normal 0.000000E+00 0.000000E+00 -1.000000E+00
    outer loop
      vertex -3.662700E+01 5.300300E+01 3.502000E+00
      vertex -2.262700E+01 -1.700100E+01 3.502000E+00
      vertex -3.662700E+01 -3.675300E+01 3.502000E+00
    endloop
  endfacet
  facet normal 0.000000E+00 0.000000E+00 1.000000E+00
    outer loop
      vertex 2.254800E+01 -9.322000E+00 8.250000E+00
      vertex 1.861500E+01 -1.411500E+01 8.250000E+00
      vertex 3.059300E+01 -3.609300E+01 8.250000E+00
    endloop
  endfacet
  facet normal 0.000000E+00 1.000000E+00 0.000000E+00
    outer loop
      vertex -3.662700E+01 -3.675300E+01 3.000000E-03
      vertex -3.662700E+01 -3.675300E+01 3.502000E+00
      vertex 2.962800E+01 -3.675300E+01 3.502000E+00
    endloop
  endfacet
  facet normal 0.000000E+00 0.000000E+00 1.000000E+00
    outer loop
      vertex 3.059300E+01 5.259300E+01 8.250000E+00
      vertex -3.809300E+01 5.259300E+01 8.250000E+00
      vertex -3.750000E+00 3.987900E+01 8.250000E+00
    endloop
  endfacet
  facet normal -8.164896E-01 0.000000E+00 5.773602E-01
    outer loop
      vertex -4.375000E+01 5.825000E+01 2.500000E-01
      vertex -3.809300E+01 -3.609300E+01 8.250000E+00
      vertex -3.809300E+01 5.259300E+01 8.250000E+00
    endloop
  endfacet
  facet normal 0.000000E+00 0.000000E+00 1.000000E+00
    outer loop
      vertex -3.004800E+01 2.582200E+01 8.250000E+00
      vertex -2.611500E+01 3.061500E+01 8.250000E+00
      vertex -3.809300E+01 5.259300E+01 8.250000E+00
    endloop
  endfacet
  facet normal 0.000000E+00 0.000000E+00 1.000000E+00
    outer loop
      vertex -2.132200E+01 3.454800E+01 8.250000E+00
      vertex -3.809300E+01 5.259300E+01 8.250000E+00
      vertex -2.611500E+01 3.061500E+01 8.250000E+00
    endloop
  endfacet
  facet normal -8.164896E-01 0.000000E+00 5.773602E-01
    outer loop
      vertex -4.375000E+01 5.825000E+01 2.500000E-01
      vertex -4.375000E+01 -4.175000E+01 2.500000E-01
      vertex -3.809300E+01 -3.609300E+01 8.250000E+00
    endloop
  endfacet
  facet normal 0.000000E+00 0.000000E+00 1.000000E+00
    outer loop
      vertex -3.297100E+01 2.035400E+01 8.250000E+00
      vertex -3.809300E+01 5.259300E+01 8.250000E+00
      vertex -3.477100E+01 1.442000E+01 8.250000E+00
    endloop
  endfacet
  facet normal 0.000000E+00 0.000000E+00 1.000000E+00
    outer loop
      vertex -3.537900E+01 8.250000E+00 8.250000E+00
      vertex -3.809300E+01 -3.609300E+01 8.250000E+00
      vertex -3.477100E+01 2.080000E+00 8.250000E+00
    endloop
  endfacet
  facet normal 0.000000E+00 8.164896E-01 5.773602E-01
    outer loop
      vertex 3.059300E+01 5.259300E+01 8.250000E+00
      vertex 3.625000E+01 5.825000E+01 2.500000E-01
      vertex -3.809300E+01 5.259300E+01 8.250000E+00
    endloop
  endfacet
  facet normal 0.000000E+00 8.164896E-01 5.773602E-01
    outer loop
      vertex 3.625000E+01 5.825000E+01 2.500000E-01
      vertex -4.375000E+01 5.825000E+01 2.500000E-01
      vertex -3.809300E+01 5.259300E+01 8.250000E+00
    endloop
  endfacet
  facet normal 0.000000E+00 0.000000E+00 1.000000E+00
    outer loop
      vertex 3.059300E+01 5.259300E+01 8.250000E+00
      vertex 2.547100E+01 2.035400E+01 8.250000E+00
      vertex 2.727100E+01 1.442000E+01 8.250000E+00
    endloop
  endfacet
  facet normal 0.000000E+00 0.000000E+00 1.000000E+00
    outer loop
      vertex 3.059300E+01 5.259300E+01 8.250000E+00
      vertex 2.727100E+01 1.442000E+01 8.250000E+00
      vertex 2.787900E+01 8.250000E+00 8.250000E+00
    endloop
  endfacet
  facet normal -1.000000E+00 0.000000E+00 0.000000E+00
    outer loop
      vertex -4.375000E+01 5.825000E+01 2.500000E-01
      vertex -4.375000E+01 5.825000E+01 3.000000E-03
      vertex -4.375000E+01 -4.175000E+01 3.000000E-03
    endloop
  endfacet
  facet normal -1.000000E+00 0.000000E+00 0.000000E+00
    outer loop
      vertex -4.375000E+01 5.825000E+01 2.500000E-01
      vertex -4.375000E+01 -4.175000E+01 3.000000E-03
      vertex -4.375000E+01 -4.175000E+01 2.500000E-01
    endloop
  endfacet
  facet normal 0.000000E+00 0.000000E+00 1.000000E+00
    outer loop
      vertex 2.254800E+01 2.582200E+01 8.250000E+00
      vertex 2.547100E+01 2.035400E+01 8.250000E+00
      vertex 3.059300E+01 5.259300E+01 8.250000E+00
    endloop
  endfacet
  facet normal 0.000000E+00 1.000000E+00 0.000000E+00
    outer loop
      vertex 3.625000E+01 5.825000E+01 2.500000E-01
      vertex 3.625000E+01 5.825000E+01 3.000000E-03
      vertex -4.375000E+01 5.825000E+01 3.000000E-03
    endloop
  endfacet
  facet normal 0.000000E+00 1.000000E+00 0.000000E+00
    outer loop
      vertex 3.625000E+01 5.825000E+01 2.500000E-01
      vertex -4.375000E+01 5.825000E+01 3.000000E-03
      vertex -4.375000E+01 5.825000E+01 2.500000E-01
    endloop
  endfacet
  facet normal 0.000000E+00 0.000000E+00 -1.000000E+00
    outer loop
      vertex 3.625000E+01 5.825000E+01 3.000000E-03
      vertex 3.625000E+01 -4.175000E+01 3.000000E-03
      vertex 2.962800E+01 5.300300E+01 3.000000E-03
    endloop
  endfacet
  facet normal 0.000000E+00 0.000000E+00 -1.000000E+00
    outer loop
      vertex 2.962800E+01 -3.675300E+01 3.000000E-03
      vertex 2.962800E+01 5.300300E+01 3.000000E-03
      vertex 3.625000E+01 -4.175000E+01 3.000000E-03
    endloop
  endfacet
  facet normal 0.000000E+00 0.000000E+00 1.000000E+00
    outer loop
      vertex 1.861500E+01 3.061500E+01 8.250000E+00
      vertex 3.059300E+01 5.259300E+01 8.250000E+00
      vertex 1.382200E+01 3.454800E+01 8.250000E+00
    endloop
  endfacet
  facet normal 0.000000E+00 0.000000E+00 1.000000E+00
    outer loop
      vertex 1.861500E+01 -1.411500E+01 8.250000E+00
      vertex 1.382200E+01 -1.804800E+01 8.250000E+00
      vertex 3.059300E+01 -3.609300E+01 8.250000E+00
    endloop
  endfacet
  facet normal 0.000000E+00 0.000000E+00 1.000000E+00
    outer loop
      vertex 1.382200E+01 -1.804800E+01 8.250000E+00
      vertex 8.354000E+00 -2.097100E+01 8.250000E+00
      vertex 3.059300E+01 -3.609300E+01 8.250000E+00
    endloop
  endfacet
  facet normal 0.000000E+00 0.000000E+00 1.000000E+00
    outer loop
      vertex 3.059300E+01 -3.609300E+01 8.250000E+00
      vertex 2.420000E+00 -2.277100E+01 8.250000E+00
      vertex -3.750000E+00 -2.337900E+01 8.250000E+00
    endloop
  endfacet
  facet normal 0.000000E+00 0.000000E+00 1.000000E+00
    outer loop
      vertex -9.920000E+00 -2.277100E+01 8.250000E+00
      vertex -3.809300E+01 -3.609300E+01 8.250000E+00
      vertex -3.750000E+00 -2.337900E+01 8.250000E+00
    endloop
  endfacet
  facet normal 0.000000E+00 0.000000E+00 1.000000E+00
    outer loop
      vertex 3.059300E+01 -3.609300E+01 8.250000E+00
      vertex -3.750000E+00 -2.337900E+01 8.250000E+00
      vertex -3.809300E+01 -3.609300E+01 8.250000E+00
    endloop
  endfacet
  facet normal 0.000000E+00 0.000000E+00 1.000000E+00
    outer loop
      vertex 8.354000E+00 3.747100E+01 8.250000E+00
      vertex 3.059300E+01 5.259300E+01 8.250000E+00
      vertex 2.420000E+00 3.927100E+01 8.250000E+00
    endloop
  endfacet
  facet normal 0.000000E+00 0.000000E+00 1.000000E+00
    outer loop
      vertex -9.920000E+00 -2.277100E+01 8.250000E+00
      vertex -1.585400E+01 -2.097100E+01 8.250000E+00
      vertex -3.809300E+01 -3.609300E+01 8.250000E+00
    endloop
  endfacet
  facet normal 0.000000E+00 0.000000E+00 1.000000E+00
    outer loop
      vertex -2.132200E+01 -1.804800E+01 8.250000E+00
      vertex -2.611500E+01 -1.411500E+01 8.250000E+00
      vertex -3.809300E+01 -3.609300E+01 8.250000E+00
    endloop
  endfacet
  facet normal 0.000000E+00 0.000000E+00 1.000000E+00
    outer loop
      vertex -3.809300E+01 5.259300E+01 8.250000E+00
      vertex -3.809300E+01 -3.609300E+01 8.250000E+00
      vertex -3.537900E+01 8.250000E+00 8.250000E+00
    endloop
  endfacet
  facet normal 0.000000E+00 0.000000E+00 1.000000E+00
    outer loop
      vertex -3.537900E+01 8.250000E+00 8.250000E+00
      vertex -3.477100E+01 1.442000E+01 8.250000E+00
      vertex -3.809300E+01 5.259300E+01 8.250000E+00
    endloop
  endfacet
  facet normal 0.000000E+00 0.000000E+00 1.000000E+00
    outer loop
      vertex -3.297100E+01 2.035400E+01 8.250000E+00
      vertex -3.004800E+01 2.582200E+01 8.250000E+00
      vertex -3.809300E+01 5.259300E+01 8.250000E+00
    endloop
  endfacet
  facet normal 0.000000E+00 0.000000E+00 1.000000E+00
    outer loop
      vertex -1.585400E+01 3.747100E+01 8.250000E+00
      vertex -3.809300E+01 5.259300E+01 8.250000E+00
      vertex -2.132200E+01 3.454800E+01 8.250000E+00
    endloop
  endfacet
  facet normal 0.000000E+00 0.000000E+00 1.000000E+00
    outer loop
      vertex -9.920000E+00 3.927100E+01 8.250000E+00
      vertex -3.750000E+00 3.987900E+01 8.250000E+00
      vertex -3.809300E+01 5.259300E+01 8.250000E+00
    endloop
  endfacet
  facet normal 0.000000E+00 0.000000E+00 1.000000E+00
    outer loop
      vertex -3.750000E+00 3.987900E+01 8.250000E+00
      vertex 2.420000E+00 3.927100E+01 8.250000E+00
      vertex 3.059300E+01 5.259300E+01 8.250000E+00
    endloop
  endfacet
  facet normal 0.000000E+00 0.000000E+00 1.000000E+00
    outer loop
      vertex -1.585400E+01 3.747100E+01 8.250000E+00
      vertex -9.920000E+00 3.927100E+01 8.250000E+00
      vertex -3.809300E+01 5.259300E+01 8.250000E+00
    endloop
  endfacet
  facet normal 0.000000E+00 -1.000000E+00 0.000000E+00
    outer loop
      vertex 3.625000E+01 -4.175000E+01 2.500000E-01
      vertex -4.375000E+01 -4.175000E+01 3.000000E-03
      vertex 3.625000E+01 -4.175000E+01 3.000000E-03
    endloop
  endfacet
  facet normal 0.000000E+00 -1.000000E+00 0.000000E+00
    outer loop
      vertex -4.375000E+01 -4.175000E+01 2.500000E-01
      vertex -4.375000E+01 -4.175000E+01 3.000000E-03
      vertex 3.625000E+01 -4.175000E+01 2.500000E-01
    endloop
  endfacet
  facet normal 0.000000E+00 0.000000E+00 1.000000E+00
    outer loop
      vertex 8.354000E+00 3.747100E+01 8.250000E+00
      vertex 1.382200E+01 3.454800E+01 8.250000E+00
      vertex 3.059300E+01 5.259300E+01 8.250000E+00
    endloop
  endfacet
  facet normal 0.000000E+00 0.000000E+00 1.000000E+00
    outer loop
      vertex 3.059300E+01 5.259300E+01 8.250000E+00
      vertex 1.861500E+01 3.061500E+01 8.250000E+00
      vertex 2.254800E+01 2.582200E+01 8.250000E+00
    endloop
  endfacet
  facet normal 0.000000E+00 0.000000E+00 1.000000E+00
    outer loop
      vertex 3.059300E+01 -3.609300E+01 8.250000E+00
      vertex 3.059300E+01 5.259300E+01 8.250000E+00
      vertex 2.787900E+01 8.250000E+00 8.250000E+00
    endloop
  endfacet
  facet normal 0.000000E+00 0.000000E+00 1.000000E+00
    outer loop
      vertex 2.727100E+01 2.080000E+00 8.250000E+00
      vertex 2.547100E+01 -3.854000E+00 8.250000E+00
      vertex 3.059300E+01 -3.609300E+01 8.250000E+00
    endloop
  endfacet
  facet normal 0.000000E+00 0.000000E+00 1.000000E+00
    outer loop
      vertex 2.547100E+01 -3.854000E+00 8.250000E+00
      vertex 2.254800E+01 -9.322000E+00 8.250000E+00
      vertex 3.059300E+01 -3.609300E+01 8.250000E+00
    endloop
  endfacet
  facet normal 0.000000E+00 0.000000E+00 1.000000E+00
    outer loop
      vertex 2.727100E+01 2.080000E+00 8.250000E+00
      vertex 3.059300E+01 -3.609300E+01 8.250000E+00
      vertex 2.787900E+01 8.250000E+00 8.250000E+00
    endloop
  endfacet
  facet normal 0.000000E+00 -8.164896E-01 5.773602E-01
    outer loop
      vertex 3.059300E+01 -3.609300E+01 8.250000E+00
      vertex -3.809300E+01 -3.609300E+01 8.250000E+00
      vertex 3.625000E+01 -4.175000E+01 2.500000E-01
    endloop
  endfacet
  facet normal 0.000000E+00 -8.164896E-01 5.773602E-01
    outer loop
      vertex 3.625000E+01 -4.175000E+01 2.500000E-01
      vertex -3.809300E+01 -3.609300E+01 8.250000E+00
      vertex -4.375000E+01 -4.175000E+01 2.500000E-01
    endloop
  endfacet
  facet normal 0.000000E+00 0.000000E+00 -1.000000E+00
    outer loop
      vertex -3.662700E+01 5.300300E+01 3.000000E-03
      vertex 3.625000E+01 5.825000E+01 3.000000E-03
      vertex 2.962800E+01 5.300300E+01 3.000000E-03
    endloop
  endfacet
  facet normal 8.164896E-01 0.000000E+00 5.773602E-01
    outer loop
      vertex 3.625000E+01 5.825000E+01 2.500000E-01
      vertex 3.059300E+01 5.259300E+01 8.250000E+00
      vertex 3.059300E+01 -3.609300E+01 8.250000E+00
    endloop
  endfacet
  facet normal 8.164896E-01 0.000000E+00 5.773602E-01
    outer loop
      vertex 3.625000E+01 5.825000E+01 2.500000E-01
      vertex 3.059300E+01 -3.609300E+01 8.250000E+00
      vertex 3.625000E+01 -4.175000E+01 2.500000E-01
    endloop
  endfacet
  facet normal 0.000000E+00 0.000000E+00 -1.000000E+00
    outer loop
      vertex -4.375000E+01 -4.175000E+01 3.000000E-03
      vertex -3.662700E+01 -3.675300E+01 3.000000E-03
      vertex 3.625000E+01 -4.175000E+01 3.000000E-03
    endloop
  endfacet
  facet normal 0.000000E+00 0.000000E+00 -1.000000E+00
    outer loop
      vertex 2.962800E+01 -3.675300E+01 3.000000E-03
      vertex 3.625000E+01 -4.175000E+01 3.000000E-03
      vertex -3.662700E+01 -3.675300E+01 3.000000E-03
    endloop
  endfacet
  facet normal 0.000000E+00 0.000000E+00 -1.000000E+00
    outer loop
      vertex -3.662700E+01 -3.675300E+01 3.000000E-03
      vertex -4.375000E+01 -4.175000E+01 3.000000E-03
      vertex -3.662700E+01 5.300300E+01 3.000000E-03
    endloop
  endfacet
  facet normal 0.000000E+00 0.000000E+00 -1.000000E+00
    outer loop
      vertex -4.375000E+01 5.825000E+01 3.000000E-03
      vertex -3.662700E+01 5.300300E+01 3.000000E-03
      vertex -4.375000E+01 -4.175000E+01 3.000000E-03
    endloop
  endfacet
  facet normal 0.000000E+00 0.000000E+00 -1.000000E+00
    outer loop
      vertex 3.625000E+01 5.825000E+01 3.000000E-03
      vertex -3.662700E+01 5.300300E+01 3.000000E-03
      vertex -4.375000E+01 5.825000E+01 3.000000E-03
    endloop
  endfacet
  facet normal 1.000000E+00 0.000000E+00 0.000000E+00
    outer loop
      vertex 3.625000E+01 5.825000E+01 3.000000E-03
      vertex 3.625000E+01 -4.175000E+01 2.500000E-01
      vertex 3.625000E+01 -4.175000E+01 3.000000E-03
    endloop
  endfacet
  facet normal 9.569430E-01 2.902759E-01 0.000000E+00
    outer loop
      vertex -3.297100E+01 -3.854000E+00 6.248000E+00
      vertex -3.477100E+01 2.080000E+00 8.250000E+00
      vertex -3.297100E+01 -3.854000E+00 8.250000E+00
    endloop
  endfacet
  facet normal 1.000000E+00 0.000000E+00 0.000000E+00
    outer loop
      vertex 3.625000E+01 -4.175000E+01 2.500000E-01
      vertex 3.625000E+01 5.825000E+01 3.000000E-03
      vertex 3.625000E+01 5.825000E+01 2.500000E-01
    endloop
  endfacet
  facet normal 8.819016E-01 4.714335E-01 0.000000E+00
    outer loop
      vertex -3.297100E+01 -3.854000E+00 6.248000E+00
      vertex -3.297100E+01 -3.854000E+00 8.250000E+00
      vertex -3.004800E+01 -9.322000E+00 8.250000E+00
    endloop
  endfacet
  facet normal 8.819016E-01 4.714335E-01 0.000000E+00
    outer loop
      vertex -3.297100E+01 -3.854000E+00 6.248000E+00
      vertex -3.004800E+01 -9.322000E+00 8.250000E+00
      vertex -3.004800E+01 -9.322000E+00 6.248000E+00
    endloop
  endfacet
  facet normal 7.730511E-01 6.343438E-01 0.000000E+00
    outer loop
      vertex -2.611500E+01 -1.411500E+01 8.250000E+00
      vertex -2.611500E+01 -1.411500E+01 6.248000E+00
      vertex -3.004800E+01 -9.322000E+00 6.248000E+00
    endloop
  endfacet
  facet normal 7.730511E-01 6.343438E-01 0.000000E+00
    outer loop
      vertex -2.611500E+01 -1.411500E+01 8.250000E+00
      vertex -3.004800E+01 -9.322000E+00 6.248000E+00
      vertex -3.004800E+01 -9.322000E+00 8.250000E+00
    endloop
  endfacet
  facet normal -7.730511E-01 6.343438E-01 0.000000E+00
    outer loop
      vertex 2.254800E+01 -9.322000E+00 8.250000E+00
      vertex 2.254800E+01 -9.322000E+00 6.248000E+00
      vertex 1.861500E+01 -1.411500E+01 6.248000E+00
    endloop
  endfacet
  facet normal -7.730511E-01 6.343438E-01 0.000000E+00
    outer loop
      vertex 2.254800E+01 -9.322000E+00 8.250000E+00
      vertex 1.861500E+01 -1.411500E+01 6.248000E+00
      vertex 1.861500E+01 -1.411500E+01 8.250000E+00
    endloop
  endfacet
  facet normal 6.343438E-01 7.730511E-01 0.000000E+00
    outer loop
      vertex -2.611500E+01 -1.411500E+01 6.248000E+00
      vertex -2.611500E+01 -1.411500E+01 8.250000E+00
      vertex -2.132200E+01 -1.804800E+01 6.248000E+00
    endloop
  endfacet
  facet normal 6.343438E-01 7.730511E-01 0.000000E+00
    outer loop
      vertex -2.132200E+01 -1.804800E+01 8.250000E+00
      vertex -2.132200E+01 -1.804800E+01 6.248000E+00
      vertex -2.611500E+01 -1.411500E+01 8.250000E+00
    endloop
  endfacet
  facet normal -8.819016E-01 4.714335E-01 0.000000E+00
    outer loop
      vertex 2.547100E+01 -3.854000E+00 8.250000E+00
      vertex 2.547100E+01 -3.854000E+00 6.248000E+00
      vertex 2.254800E+01 -9.322000E+00 6.248000E+00
    endloop
  endfacet
  facet normal -8.819016E-01 4.714335E-01 0.000000E+00
    outer loop
      vertex 2.547100E+01 -3.854000E+00 8.250000E+00
      vertex 2.254800E+01 -9.322000E+00 6.248000E+00
      vertex 2.254800E+01 -9.322000E+00 8.250000E+00
    endloop
  endfacet
  facet normal -4.714335E-01 -8.819016E-01 0.000000E+00
    outer loop
      vertex 1.382200E+01 3.454800E+01 6.248000E+00
      vertex 1.382200E+01 3.454800E+01 8.250000E+00
      vertex 8.354000E+00 3.747100E+01 8.250000E+00
    endloop
  endfacet
  facet normal -4.714335E-01 -8.819016E-01 0.000000E+00
    outer loop
      vertex 1.382200E+01 3.454800E+01 6.248000E+00
      vertex 8.354000E+00 3.747100E+01 8.250000E+00
      vertex 8.354000E+00 3.747100E+01 6.248000E+00
    endloop
  endfacet
  facet normal -9.569430E-01 2.902759E-01 0.000000E+00
    outer loop
      vertex 2.547100E+01 -3.854000E+00 8.250000E+00
      vertex 2.727100E+01 2.080000E+00 6.248000E+00
      vertex 2.547100E+01 -3.854000E+00 6.248000E+00
    endloop
  endfacet
  facet normal -2.902759E-01 -9.569430E-01 0.000000E+00
    outer loop
      vertex 8.354000E+00 3.747100E+01 6.248000E+00
      vertex 8.354000E+00 3.747100E+01 8.250000E+00
      vertex 2.420000E+00 3.927100E+01 8.250000E+00
    endloop
  endfacet
  facet normal -2.902759E-01 -9.569430E-01 0.000000E+00
    outer loop
      vertex 8.354000E+00 3.747100E+01 6.248000E+00
      vertex 2.420000E+00 3.927100E+01 8.250000E+00
      vertex 2.420000E+00 3.927100E+01 6.248000E+00
    endloop
  endfacet
  facet normal -9.806634E-02 -9.951799E-01 0.000000E+00
    outer loop
      vertex -3.750000E+00 3.987900E+01 8.250000E+00
      vertex -3.750000E+00 3.987900E+01 6.248000E+00
      vertex 2.420000E+00 3.927100E+01 8.250000E+00
    endloop
  endfacet
  facet normal -9.806634E-02 -9.951799E-01 0.000000E+00
    outer loop
      vertex 2.420000E+00 3.927100E+01 6.248000E+00
      vertex 2.420000E+00 3.927100E+01 8.250000E+00
      vertex -3.750000E+00 3.987900E+01 6.248000E+00
    endloop
  endfacet
  facet normal 9.806634E-02 -9.951799E-01 0.000000E+00
    outer loop
      vertex -3.750000E+00 3.987900E+01 6.248000E+00
      vertex -3.750000E+00 3.987900E+01 8.250000E+00
      vertex -9.920000E+00 3.927100E+01 8.250000E+00
    endloop
  endfacet
  facet normal 9.806634E-02 -9.951799E-01 0.000000E+00
    outer loop
      vertex -3.750000E+00 3.987900E+01 6.248000E+00
      vertex -9.920000E+00 3.927100E+01 8.250000E+00
      vertex -9.920000E+00 3.927100E+01 6.248000E+00
    endloop
  endfacet
  facet normal -9.569430E-01 2.902759E-01 0.000000E+00
    outer loop
      vertex 2.727100E+01 2.080000E+00 8.250000E+00
      vertex 2.727100E+01 2.080000E+00 6.248000E+00
      vertex 2.547100E+01 -3.854000E+00 8.250000E+00
    endloop
  endfacet
  facet normal 2.902759E-01 -9.569430E-01 0.000000E+00
    outer loop
      vertex -9.920000E+00 3.927100E+01 6.248000E+00
      vertex -9.920000E+00 3.927100E+01 8.250000E+00
      vertex -1.585400E+01 3.747100E+01 8.250000E+00
    endloop
  endfacet
  facet normal 2.902759E-01 -9.569430E-01 0.000000E+00
    outer loop
      vertex -9.920000E+00 3.927100E+01 6.248000E+00
      vertex -1.585400E+01 3.747100E+01 8.250000E+00
      vertex -1.585400E+01 3.747100E+01 6.248000E+00
    endloop
  endfacet
  facet normal -9.951799E-01 9.806634E-02 0.000000E+00
    outer loop
      vertex 2.727100E+01 2.080000E+00 6.248000E+00
      vertex 2.727100E+01 2.080000E+00 8.250000E+00
      vertex 2.787900E+01 8.250000E+00 8.250000E+00
    endloop
  endfacet
  facet normal -9.951799E-01 9.806634E-02 0.000000E+00
    outer loop
      vertex 2.727100E+01 2.080000E+00 6.248000E+00
      vertex 2.787900E+01 8.250000E+00 8.250000E+00
      vertex 2.787900E+01 8.250000E+00 6.248000E+00
    endloop
  endfacet
  facet normal 4.714335E-01 -8.819016E-01 0.000000E+00
    outer loop
      vertex -1.585400E+01 3.747100E+01 6.248000E+00
      vertex -1.585400E+01 3.747100E+01 8.250000E+00
      vertex -2.132200E+01 3.454800E+01 8.250000E+00
    endloop
  endfacet
  facet normal 4.714335E-01 -8.819016E-01 0.000000E+00
    outer loop
      vertex -1.585400E+01 3.747100E+01 6.248000E+00
      vertex -2.132200E+01 3.454800E+01 8.250000E+00
      vertex -2.132200E+01 3.454800E+01 6.248000E+00
    endloop
  endfacet
  facet normal 6.343438E-01 -7.730511E-01 0.000000E+00
    outer loop
      vertex -2.132200E+01 3.454800E+01 6.248000E+00
      vertex -2.132200E+01 3.454800E+01 8.250000E+00
      vertex -2.611500E+01 3.061500E+01 8.250000E+00
    endloop
  endfacet
  facet normal 6.343438E-01 -7.730511E-01 0.000000E+00
    outer loop
      vertex -2.132200E+01 3.454800E+01 6.248000E+00
      vertex -2.611500E+01 3.061500E+01 8.250000E+00
      vertex -2.611500E+01 3.061500E+01 6.248000E+00
    endloop
  endfacet
  facet normal 7.730511E-01 -6.343438E-01 0.000000E+00
    outer loop
      vertex -2.611500E+01 3.061500E+01 6.248000E+00
      vertex -2.611500E+01 3.061500E+01 8.250000E+00
      vertex -3.004800E+01 2.582200E+01 8.250000E+00
    endloop
  endfacet
  facet normal 7.730511E-01 -6.343438E-01 0.000000E+00
    outer loop
      vertex -2.611500E+01 3.061500E+01 6.248000E+00
      vertex -3.004800E+01 2.582200E+01 8.250000E+00
      vertex -3.004800E+01 2.582200E+01 6.248000E+00
    endloop
  endfacet
  facet normal 0.000000E+00 0.000000E+00 1.000000E+00
    outer loop
      vertex -2.611500E+01 -1.411500E+01 6.248000E+00
      vertex 1.382200E+01 -1.804800E+01 6.248000E+00
      vertex -3.004800E+01 -9.322000E+00 6.248000E+00
    endloop
  endfacet
  facet normal 0.000000E+00 0.000000E+00 1.000000E+00
    outer loop
      vertex -2.132200E+01 -1.804800E+01 6.248000E+00
      vertex 1.382200E+01 -1.804800E+01 6.248000E+00
      vertex -2.611500E+01 -1.411500E+01 6.248000E+00
    endloop
  endfacet
  facet normal 0.000000E+00 0.000000E+00 1.000000E+00
    outer loop
      vertex -3.297100E+01 -3.854000E+00 6.248000E+00
      vertex -3.004800E+01 -9.322000E+00 6.248000E+00
      vertex 1.382200E+01 -1.804800E+01 6.248000E+00
    endloop
  endfacet
  facet normal 0.000000E+00 0.000000E+00 1.000000E+00
    outer loop
      vertex -9.920000E+00 3.927100E+01 6.248000E+00
      vertex -1.585400E+01 3.747100E+01 6.248000E+00
      vertex 1.861500E+01 -1.411500E+01 6.248000E+00
    endloop
  endfacet
  facet normal 8.819016E-01 -4.714335E-01 0.000000E+00
    outer loop
      vertex -3.004800E+01 2.582200E+01 6.248000E+00
      vertex -3.004800E+01 2.582200E+01 8.250000E+00
      vertex -3.297100E+01 2.035400E+01 8.250000E+00
    endloop
  endfacet
  facet normal 8.819016E-01 -4.714335E-01 0.000000E+00
    outer loop
      vertex -3.004800E+01 2.582200E+01 6.248000E+00
      vertex -3.297100E+01 2.035400E+01 8.250000E+00
      vertex -3.297100E+01 2.035400E+01 6.248000E+00
    endloop
  endfacet
  facet normal 9.569430E-01 -2.902759E-01 0.000000E+00
    outer loop
      vertex -3.297100E+01 2.035400E+01 6.248000E+00
      vertex -3.297100E+01 2.035400E+01 8.250000E+00
      vertex -3.477100E+01 1.442000E+01 8.250000E+00
    endloop
  endfacet
  facet normal 9.569430E-01 -2.902759E-01 0.000000E+00
    outer loop
      vertex -3.297100E+01 2.035400E+01 6.248000E+00
      vertex -3.477100E+01 1.442000E+01 8.250000E+00
      vertex -3.477100E+01 1.442000E+01 6.248000E+00
    endloop
  endfacet
  facet normal 9.951799E-01 -9.806634E-02 0.000000E+00
    outer loop
      vertex -3.477100E+01 1.442000E+01 6.248000E+00
      vertex -3.477100E+01 1.442000E+01 8.250000E+00
      vertex -3.537900E+01 8.250000E+00 8.250000E+00
    endloop
  endfacet
  facet normal 9.951799E-01 -9.806634E-02 0.000000E+00
    outer loop
      vertex -3.477100E+01 1.442000E+01 6.248000E+00
      vertex -3.537900E+01 8.250000E+00 8.250000E+00
      vertex -3.537900E+01 8.250000E+00 6.248000E+00
    endloop
  endfacet
  facet normal 9.951799E-01 9.806634E-02 0.000000E+00
    outer loop
      vertex -3.477100E+01 2.080000E+00 8.250000E+00
      vertex -3.477100E+01 2.080000E+00 6.248000E+00
      vertex -3.537900E+01 8.250000E+00 6.248000E+00
    endloop
  endfacet
  facet normal 9.951799E-01 9.806634E-02 0.000000E+00
    outer loop
      vertex -3.477100E+01 2.080000E+00 8.250000E+00
      vertex -3.537900E+01 8.250000E+00 6.248000E+00
      vertex -3.537900E+01 8.250000E+00 8.250000E+00
    endloop
  endfacet
  facet normal 0.000000E+00 0.000000E+00 1.000000E+00
    outer loop
      vertex -9.920000E+00 3.927100E+01 6.248000E+00
      vertex 1.861500E+01 -1.411500E+01 6.248000E+00
      vertex -3.750000E+00 3.987900E+01 6.248000E+00
    endloop
  endfacet
  facet normal 0.000000E+00 0.000000E+00 1.000000E+00
    outer loop
      vertex -2.132200E+01 3.454800E+01 6.248000E+00
      vertex 1.861500E+01 -1.411500E+01 6.248000E+00
      vertex -1.585400E+01 3.747100E+01 6.248000E+00
    endloop
  endfacet
  facet normal 0.000000E+00 0.000000E+00 1.000000E+00
    outer loop
      vertex -2.611500E+01 3.061500E+01 6.248000E+00
      vertex 1.861500E+01 -1.411500E+01 6.248000E+00
      vertex -2.132200E+01 3.454800E+01 6.248000E+00
    endloop
  endfacet
  facet normal 0.000000E+00 0.000000E+00 1.000000E+00
    outer loop
      vertex -3.004800E+01 2.582200E+01 6.248000E+00
      vertex 1.861500E+01 -1.411500E+01 6.248000E+00
      vertex -2.611500E+01 3.061500E+01 6.248000E+00
    endloop
  endfacet
  facet normal 0.000000E+00 0.000000E+00 1.000000E+00
    outer loop
      vertex -3.297100E+01 2.035400E+01 6.248000E+00
      vertex 1.382200E+01 -1.804800E+01 6.248000E+00
      vertex -3.004800E+01 2.582200E+01 6.248000E+00
    endloop
  endfacet
  facet normal 0.000000E+00 0.000000E+00 1.000000E+00
    outer loop
      vertex -3.477100E+01 1.442000E+01 6.248000E+00
      vertex 1.382200E+01 -1.804800E+01 6.248000E+00
      vertex -3.297100E+01 2.035400E+01 6.248000E+00
    endloop
  endfacet
  facet normal 0.000000E+00 0.000000E+00 1.000000E+00
    outer loop
      vertex -3.537900E+01 8.250000E+00 6.248000E+00
      vertex 1.382200E+01 -1.804800E+01 6.248000E+00
      vertex -3.477100E+01 1.442000E+01 6.248000E+00
    endloop
  endfacet
  facet normal 0.000000E+00 0.000000E+00 1.000000E+00
    outer loop
      vertex -3.477100E+01 2.080000E+00 6.248000E+00
      vertex 1.382200E+01 -1.804800E+01 6.248000E+00
      vertex -3.537900E+01 8.250000E+00 6.248000E+00
    endloop
  endfacet
  facet normal 0.000000E+00 0.000000E+00 1.000000E+00
    outer loop
      vertex -3.297100E+01 -3.854000E+00 6.248000E+00
      vertex 1.382200E+01 -1.804800E+01 6.248000E+00
      vertex -3.477100E+01 2.080000E+00 6.248000E+00
    endloop
  endfacet
  facet normal 9.569430E-01 2.902759E-01 0.000000E+00
    outer loop
      vertex -3.477100E+01 2.080000E+00 8.250000E+00
      vertex -3.297100E+01 -3.854000E+00 6.248000E+00
      vertex -3.477100E+01 2.080000E+00 6.248000E+00
    endloop
  endfacet
  facet normal -9.951799E-01 -9.806634E-02 0.000000E+00
    outer loop
      vertex 2.727100E+01 1.442000E+01 8.250000E+00
      vertex 2.727100E+01 1.442000E+01 6.248000E+00
      vertex 2.787900E+01 8.250000E+00 6.248000E+00
    endloop
  endfacet
  facet normal -9.951799E-01 -9.806634E-02 0.000000E+00
    outer loop
      vertex 2.727100E+01 1.442000E+01 8.250000E+00
      vertex 2.787900E+01 8.250000E+00 6.248000E+00
      vertex 2.787900E+01 8.250000E+00 8.250000E+00
    endloop
  endfacet
  facet normal 0.000000E+00 0.000000E+00 1.000000E+00
    outer loop
      vertex 1.861500E+01 -1.411500E+01 6.248000E+00
      vertex 1.382200E+01 3.454800E+01 6.248000E+00
      vertex 8.354000E+00 3.747100E+01 6.248000E+00
    endloop
  endfacet
  facet normal 0.000000E+00 0.000000E+00 1.000000E+00
    outer loop
      vertex 1.861500E+01 -1.411500E+01 6.248000E+00
      vertex 8.354000E+00 3.747100E+01 6.248000E+00
      vertex 2.420000E+00 3.927100E+01 6.248000E+00
    endloop
  endfacet
  facet normal 0.000000E+00 0.000000E+00 1.000000E+00
    outer loop
      vertex 2.420000E+00 3.927100E+01 6.248000E+00
      vertex -3.750000E+00 3.987900E+01 6.248000E+00
      vertex 1.861500E+01 -1.411500E+01 6.248000E+00
    endloop
  endfacet
  facet normal -9.569430E-01 -2.902759E-01 0.000000E+00
    outer loop
      vertex 2.547100E+01 2.035400E+01 8.250000E+00
      vertex 2.547100E+01 2.035400E+01 6.248000E+00
      vertex 2.727100E+01 1.442000E+01 6.248000E+00
    endloop
  endfacet
  facet normal -9.569430E-01 -2.902759E-01 0.000000E+00
    outer loop
      vertex 2.547100E+01 2.035400E+01 8.250000E+00
      vertex 2.727100E+01 1.442000E+01 6.248000E+00
      vertex 2.727100E+01 1.442000E+01 8.250000E+00
    endloop
  endfacet
  facet normal -8.819016E-01 -4.714335E-01 0.000000E+00
    outer loop
      vertex 2.254800E+01 2.582200E+01 8.250000E+00
      vertex 2.254800E+01 2.582200E+01 6.248000E+00
      vertex 2.547100E+01 2.035400E+01 6.248000E+00
    endloop
  endfacet
  facet normal -8.819016E-01 -4.714335E-01 0.000000E+00
    outer loop
      vertex 2.254800E+01 2.582200E+01 8.250000E+00
      vertex 2.547100E+01 2.035400E+01 6.248000E+00
      vertex 2.547100E+01 2.035400E+01 8.250000E+00
    endloop
  endfacet
  facet normal 0.000000E+00 0.000000E+00 1.000000E+00
    outer loop
      vertex 1.861500E+01 -1.411500E+01 6.248000E+00
      vertex -3.004800E+01 2.582200E+01 6.248000E+00
      vertex 1.382200E+01 -1.804800E+01 6.248000E+00
    endloop
  endfacet
  facet normal 0.000000E+00 0.000000E+00 1.000000E+00
    outer loop
      vertex 2.547100E+01 -3.854000E+00 6.248000E+00
      vertex 2.727100E+01 2.080000E+00 6.248000E+00
      vertex 2.254800E+01 -9.322000E+00 6.248000E+00
    endloop
  endfacet
  facet normal 0.000000E+00 0.000000E+00 1.000000E+00
    outer loop
      vertex 2.727100E+01 2.080000E+00 6.248000E+00
      vertex 2.787900E+01 8.250000E+00 6.248000E+00
      vertex 2.254800E+01 -9.322000E+00 6.248000E+00
    endloop
  endfacet
  facet normal -7.730511E-01 -6.343438E-01 0.000000E+00
    outer loop
      vertex 1.861500E+01 3.061500E+01 8.250000E+00
      vertex 1.861500E+01 3.061500E+01 6.248000E+00
      vertex 2.254800E+01 2.582200E+01 6.248000E+00
    endloop
  endfacet
  facet normal -7.730511E-01 -6.343438E-01 0.000000E+00
    outer loop
      vertex 1.861500E+01 3.061500E+01 8.250000E+00
      vertex 2.254800E+01 2.582200E+01 6.248000E+00
      vertex 2.254800E+01 2.582200E+01 8.250000E+00
    endloop
  endfacet
  facet normal -6.343438E-01 -7.730511E-01 0.000000E+00
    outer loop
      vertex 1.382200E+01 3.454800E+01 8.250000E+00
      vertex 1.382200E+01 3.454800E+01 6.248000E+00
      vertex 1.861500E+01 3.061500E+01 8.250000E+00
    endloop
  endfacet
  facet normal -6.343438E-01 -7.730511E-01 0.000000E+00
    outer loop
      vertex 1.861500E+01 3.061500E+01 6.248000E+00
      vertex 1.861500E+01 3.061500E+01 8.250000E+00
      vertex 1.382200E+01 3.454800E+01 6.248000E+00
    endloop
  endfacet
  facet normal 0.000000E+00 0.000000E+00 1.000000E+00
    outer loop
      vertex 1.861500E+01 -1.411500E+01 6.248000E+00
      vertex 2.254800E+01 -9.322000E+00 6.248000E+00
      vertex 2.254800E+01 2.582200E+01 6.248000E+00
    endloop
  endfacet
  facet normal 0.000000E+00 0.000000E+00 1.000000E+00
    outer loop
      vertex 2.547100E+01 2.035400E+01 6.248000E+00
      vertex 2.254800E+01 2.582200E+01 6.248000E+00
      vertex 2.254800E+01 -9.322000E+00 6.248000E+00
    endloop
  endfacet
  facet normal 0.000000E+00 0.000000E+00 1.000000E+00
    outer loop
      vertex 1.861500E+01 3.061500E+01 6.248000E+00
      vertex 1.861500E+01 -1.411500E+01 6.248000E+00
      vertex 2.254800E+01 2.582200E+01 6.248000E+00
    endloop
  endfacet
  facet normal 0.000000E+00 0.000000E+00 1.000000E+00
    outer loop
      vertex 1.382200E+01 3.454800E+01 6.248000E+00
      vertex 1.861500E+01 -1.411500E+01 6.248000E+00
      vertex 1.861500E+01 3.061500E+01 6.248000E+00
    endloop
  endfacet
  facet normal 0.000000E+00 0.000000E+00 1.000000E+00
    outer loop
      vertex 2.727100E+01 1.442000E+01 6.248000E+00
      vertex 2.547100E+01 2.035400E+01 6.248000E+00
      vertex 2.254800E+01 -9.322000E+00 6.248000E+00
    endloop
  endfacet
  facet normal 0.000000E+00 0.000000E+00 1.000000E+00
    outer loop
      vertex 2.787900E+01 8.250000E+00 6.248000E+00
      vertex 2.727100E+01 1.442000E+01 6.248000E+00
      vertex 2.254800E+01 -9.322000E+00 6.248000E+00
    endloop
  endfacet
  facet normal 0.000000E+00 0.000000E+00 1.000000E+00
    outer loop
      vertex 1.382200E+01 -1.804800E+01 6.248000E+00
      vertex -2.132200E+01 -1.804800E+01 6.248000E+00
      vertex -1.585400E+01 -2.097100E+01 6.248000E+00
    endloop
  endfacet
  facet normal 0.000000E+00 0.000000E+00 1.000000E+00
    outer loop
      vertex 1.382200E+01 -1.804800E+01 6.248000E+00
      vertex -1.585400E+01 -2.097100E+01 6.248000E+00
      vertex -9.920000E+00 -2.277100E+01 6.248000E+00
    endloop
  endfacet
  facet normal 0.000000E+00 0.000000E+00 1.000000E+00
    outer loop
      vertex -3.750000E+00 -2.337900E+01 6.248000E+00
      vertex 1.382200E+01 -1.804800E+01 6.248000E+00
      vertex -9.920000E+00 -2.277100E+01 6.248000E+00
    endloop
  endfacet
  facet normal 0.000000E+00 0.000000E+00 1.000000E+00
    outer loop
      vertex 2.420000E+00 -2.277100E+01 6.248000E+00
      vertex 1.382200E+01 -1.804800E+01 6.248000E+00
      vertex -3.750000E+00 -2.337900E+01 6.248000E+00
    endloop
  endfacet
  facet normal 0.000000E+00 0.000000E+00 1.000000E+00
    outer loop
      vertex 8.354000E+00 -2.097100E+01 6.248000E+00
      vertex 1.382200E+01 -1.804800E+01 6.248000E+00
      vertex 2.420000E+00 -2.277100E+01 6.248000E+00
    endloop
  endfacet
  facet normal 1.000000E+00 0.000000E+00 0.000000E+00
    outer loop
      vertex -2.262700E+01 4.325200E+01 5.252000E+00
      vertex -2.262700E+01 -1.700100E+01 5.252000E+00
      vertex -2.262700E+01 -1.700100E+01 3.502000E+00
    endloop
  endfacet
  facet normal 1.000000E+00 0.000000E+00 0.000000E+00
    outer loop
      vertex -2.262700E+01 4.325200E+01 5.252000E+00
      vertex -2.262700E+01 -1.700100E+01 3.502000E+00
      vertex -2.262700E+01 4.325200E+01 3.502000E+00
    endloop
  endfacet
  facet normal 0.000000E+00 0.000000E+00 -1.000000E+00
    outer loop
      vertex -2.262700E+01 -1.700100E+01 3.502000E+00
      vertex -3.662700E+01 5.300300E+01 3.502000E+00
      vertex -2.262700E+01 4.325200E+01 3.502000E+00
    endloop
  endfacet
  facet normal 0.000000E+00 0.000000E+00 -1.000000E+00
    outer loop
      vertex -2.262700E+01 -1.700100E+01 5.252000E+00
      vertex -2.262700E+01 4.325200E+01 5.252000E+00
      vertex 1.762700E+01 4.325200E+01 5.252000E+00
    endloop
  endfacet
  facet normal 0.000000E+00 0.000000E+00 -1.000000E+00
    outer loop
      vertex -2.262700E+01 -1.700100E+01 5.252000E+00
      vertex 1.762700E+01 4.325200E+01 5.252000E+00
      vertex 1.762700E+01 -1.700100E+01 5.252000E+00
    endloop
  endfacet
  facet normal -1.000000E+00 0.000000E+00 0.000000E+00
    outer loop
      vertex 1.762700E+01 -1.700100E+01 5.252000E+00
      vertex 1.762700E+01 4.325200E+01 5.252000E+00
      vertex 1.762700E+01 4.325200E+01 3.502000E+00
    endloop
  endfacet
  facet normal -1.000000E+00 0.000000E+00 0.000000E+00
    outer loop
      vertex 1.762700E+01 -1.700100E+01 5.252000E+00
      vertex 1.762700E+01 4.325200E+01 3.502000E+00
      vertex 1.762700E+01 -1.700100E+01 3.502000E+00
    endloop
  endfacet
  facet normal 0.000000E+00 0.000000E+00 -1.000000E+00
    outer loop
      vertex 1.762700E+01 4.325200E+01 3.502000E+00
      vertex 2.962800E+01 5.300300E+01 3.502000E+00
      vertex 1.762700E+01 -1.700100E+01 3.502000E+00
    endloop
  endfacet
  facet normal 0.000000E+00 0.000000E+00 -1.000000E+00
    outer loop
      vertex 2.962800E+01 -3.675300E+01 3.502000E+00
      vertex 1.762700E+01 -1.700100E+01 3.502000E+00
      vertex 2.962800E+01 5.300300E+01 3.502000E+00
    endloop
  endfacet
  facet normal -1.000000E+00 0.000000E+00 0.000000E+00
    outer loop
      vertex 2.962800E+01 5.300300E+01 3.000000E-03
      vertex 2.962800E+01 -3.675300E+01 3.000000E-03
      vertex 2.962800E+01 -3.675300E+01 3.502000E+00
    endloop
  endfacet
  facet normal -1.000000E+00 0.000000E+00 0.000000E+00
    outer loop
      vertex 2.962800E+01 5.300300E+01 3.000000E-03
      vertex 2.962800E+01 -3.675300E+01 3.502000E+00
      vertex 2.962800E+01 5.300300E+01 3.502000E+00
    endloop
  endfacet
  facet normal 0.000000E+00 -1.000000E+00 0.000000E+00
    outer loop
      vertex -2.262700E+01 4.325200E+01 3.502000E+00
      vertex 1.762700E+01 4.325200E+01 3.502000E+00
      vertex 1.762700E+01 4.325200E+01 5.252000E+00
    endloop
  endfacet
  facet normal 0.000000E+00 -1.000000E+00 0.000000E+00
    outer loop
      vertex -2.262700E+01 4.325200E+01 3.502000E+00
      vertex 1.762700E+01 4.325200E+01 5.252000E+00
      vertex -2.262700E+01 4.325200E+01 5.252000E+00
    endloop
  endfacet
  facet normal 0.000000E+00 0.000000E+00 -1.000000E+00
    outer loop
      vertex 1.762700E+01 4.325200E+01 3.502000E+00
      vertex -2.262700E+01 4.325200E+01 3.502000E+00
      vertex 2.962800E+01 5.300300E+01 3.502000E+00
    endloop
  endfacet
  facet normal 0.000000E+00 0.000000E+00 -1.000000E+00
    outer loop
      vertex -3.662700E+01 5.300300E+01 3.502000E+00
      vertex 2.962800E+01 5.300300E+01 3.502000E+00
      vertex -2.262700E+01 4.325200E+01 3.502000E+00
    endloop
  endfacet
  facet normal 4.714335E-01 8.819016E-01 0.000000E+00
    outer loop
      vertex -1.585400E+01 -2.097100E+01 8.250000E+00
      vertex -1.585400E+01 -2.097100E+01 6.248000E+00
      vertex -2.132200E+01 -1.804800E+01 6.248000E+00
    endloop
  endfacet
  facet normal 4.714335E-01 8.819016E-01 0.000000E+00
    outer loop
      vertex -1.585400E+01 -2.097100E+01 8.250000E+00
      vertex -2.132200E+01 -1.804800E+01 6.248000E+00
      vertex -2.132200E+01 -1.804800E+01 8.250000E+00
    endloop
  endfacet
  facet normal 2.902759E-01 9.569430E-01 0.000000E+00
    outer loop
      vertex -9.920000E+00 -2.277100E+01 8.250000E+00
      vertex -9.920000E+00 -2.277100E+01 6.248000E+00
      vertex -1.585400E+01 -2.097100E+01 6.248000E+00
    endloop
  endfacet
  facet normal 2.902759E-01 9.569430E-01 0.000000E+00
    outer loop
      vertex -9.920000E+00 -2.277100E+01 8.250000E+00
      vertex -1.585400E+01 -2.097100E+01 6.248000E+00
      vertex -1.585400E+01 -2.097100E+01 8.250000E+00
    endloop
  endfacet
  facet normal 9.806634E-02 9.951799E-01 0.000000E+00
    outer loop
      vertex -3.750000E+00 -2.337900E+01 6.248000E+00
      vertex -9.920000E+00 -2.277100E+01 6.248000E+00
      vertex -9.920000E+00 -2.277100E+01 8.250000E+00
    endloop
  endfacet
  facet normal 9.806634E-02 9.951799E-01 0.000000E+00
    outer loop
      vertex -3.750000E+00 -2.337900E+01 6.248000E+00
      vertex -9.920000E+00 -2.277100E+01 8.250000E+00
      vertex -3.750000E+00 -2.337900E+01 8.250000E+00
    endloop
  endfacet
  facet normal -9.806634E-02 9.951799E-01 0.000000E+00
    outer loop
      vertex 2.420000E+00 -2.277100E+01 8.250000E+00
      vertex 2.420000E+00 -2.277100E+01 6.248000E+00
      vertex -3.750000E+00 -2.337900E+01 6.248000E+00
    endloop
  endfacet
  facet normal -9.806634E-02 9.951799E-01 0.000000E+00
    outer loop
      vertex 2.420000E+00 -2.277100E+01 8.250000E+00
      vertex -3.750000E+00 -2.337900E+01 6.248000E+00
      vertex -3.750000E+00 -2.337900E+01 8.250000E+00
    endloop
  endfacet
  facet normal -2.902759E-01 9.569430E-01 0.000000E+00
    outer loop
      vertex 8.354000E+00 -2.097100E+01 8.250000E+00
      vertex 8.354000E+00 -2.097100E+01 6.248000E+00
      vertex 2.420000E+00 -2.277100E+01 6.248000E+00
    endloop
  endfacet
  facet normal -2.902759E-01 9.569430E-01 0.000000E+00
    outer loop
      vertex 8.354000E+00 -2.097100E+01 8.250000E+00
      vertex 2.420000E+00 -2.277100E+01 6.248000E+00
      vertex 2.420000E+00 -2.277100E+01 8.250000E+00
    endloop
  endfacet
  facet normal -4.714335E-01 8.819016E-01 0.000000E+00
    outer loop
      vertex 1.382200E+01 -1.804800E+01 8.250000E+00
      vertex 1.382200E+01 -1.804800E+01 6.248000E+00
      vertex 8.354000E+00 -2.097100E+01 6.248000E+00
    endloop
  endfacet
  facet normal -4.714335E-01 8.819016E-01 0.000000E+00
    outer loop
      vertex 1.382200E+01 -1.804800E+01 8.250000E+00
      vertex 8.354000E+00 -2.097100E+01 6.248000E+00
      vertex 8.354000E+00 -2.097100E+01 8.250000E+00
    endloop
  endfacet
  facet normal -6.343438E-01 7.730511E-01 0.000000E+00
    outer loop
      vertex 1.861500E+01 -1.411500E+01 8.250000E+00
      vertex 1.861500E+01 -1.411500E+01 6.248000E+00
      vertex 1.382200E+01 -1.804800E+01 6.248000E+00
    endloop
  endfacet
  facet normal -6.343438E-01 7.730511E-01 0.000000E+00
    outer loop
      vertex 1.861500E+01 -1.411500E+01 8.250000E+00
      vertex 1.382200E+01 -1.804800E+01 6.248000E+00
      vertex 1.382200E+01 -1.804800E+01 8.250000E+00
    endloop
  endfacet
endsolid 
