solid 
  facet normal 8.164896E-01 0.000000E+00 5.773602E-01
    outer loop
      vertex 5.821700E+01 -6.684300E+01 8.250000E+00
      vertex 6.387400E+01 -7.250000E+01 2.500000E-01
      vertex 5.821700E+01 2.184300E+01 8.250000E+00
    endloop
  endfacet
  facet normal 8.164896E-01 0.000000E+00 5.773602E-01
    outer loop
      vertex 6.387400E+01 2.750000E+01 2.500000E-01
      vertex 5.821700E+01 2.184300E+01 8.250000E+00
      vertex 6.387400E+01 -7.250000E+01 2.500000E-01
    endloop
  endfacet
  facet normal 1.000000E+00 0.000000E+00 0.000000E+00
    outer loop
      vertex 6.387400E+01 2.750000E+01 2.500000E-01
      vertex 6.387400E+01 -7.250000E+01 2.500000E-01
      vertex 6.387400E+01 2.750000E+01 3.000000E-03
    endloop
  endfacet
  facet normal 1.000000E+00 0.000000E+00 0.000000E+00
    outer loop
      vertex 6.387400E+01 -7.250000E+01 3.000000E-03
      vertex 6.387400E+01 2.750000E+01 3.000000E-03
      vertex 6.387400E+01 -7.250000E+01 2.500000E-01
    endloop
  endfacet
  facet normal -6.343438E-01 -7.730511E-01 0.000000E+00
    outer loop
      vertex 4.144600E+01 3.798000E+00 6.248000E+00
      vertex 4.623900E+01 -1.350000E-01 8.250000E+00
      vertex 4.144600E+01 3.798000E+00 8.250000E+00
    endloop
  endfacet
  facet normal -4.714335E-01 -8.819016E-01 0.000000E+00
    outer loop
      vertex 4.144600E+01 3.798000E+00 6.248000E+00
      vertex 4.144600E+01 3.798000E+00 8.250000E+00
      vertex 3.597800E+01 6.721000E+00 8.250000E+00
    endloop
  endfacet
  facet normal -4.714335E-01 -8.819016E-01 0.000000E+00
    outer loop
      vertex 4.144600E+01 3.798000E+00 6.248000E+00
      vertex 3.597800E+01 6.721000E+00 8.250000E+00
      vertex 3.597800E+01 6.721000E+00 6.248000E+00
    endloop
  endfacet
  facet normal 0.000000E+00 0.000000E+00 1.000000E+00
    outer loop
      vertex -5.347000E+00 -1.039600E+01 8.250000E+00
      vertex -1.046900E+01 2.184300E+01 8.250000E+00
      vertex -7.147000E+00 -1.633000E+01 8.250000E+00
    endloop
  endfacet
  facet normal 0.000000E+00 0.000000E+00 1.000000E+00
    outer loop
      vertex -7.755000E+00 -2.250000E+01 8.250000E+00
      vertex -7.147000E+00 -1.633000E+01 8.250000E+00
      vertex -1.046900E+01 2.184300E+01 8.250000E+00
    endloop
  endfacet
  facet normal -2.902759E-01 -9.569430E-01 0.000000E+00
    outer loop
      vertex 3.597800E+01 6.721000E+00 6.248000E+00
      vertex 3.597800E+01 6.721000E+00 8.250000E+00
      vertex 3.004400E+01 8.521000E+00 8.250000E+00
    endloop
  endfacet
  facet normal -2.902759E-01 -9.569430E-01 0.000000E+00
    outer loop
      vertex 3.597800E+01 6.721000E+00 6.248000E+00
      vertex 3.004400E+01 8.521000E+00 8.250000E+00
      vertex 3.004400E+01 8.521000E+00 6.248000E+00
    endloop
  endfacet
  facet normal -9.806634E-02 -9.951799E-01 0.000000E+00
    outer loop
      vertex 3.004400E+01 8.521000E+00 6.248000E+00
      vertex 3.004400E+01 8.521000E+00 8.250000E+00
      vertex 2.387400E+01 9.129000E+00 8.250000E+00
    endloop
  endfacet
  facet normal -9.806634E-02 -9.951799E-01 0.000000E+00
    outer loop
      vertex 3.004400E+01 8.521000E+00 6.248000E+00
      vertex 2.387400E+01 9.129000E+00 8.250000E+00
      vertex 2.387400E+01 9.129000E+00 6.248000E+00
    endloop
  endfacet
  facet normal 9.806634E-02 -9.951799E-01 0.000000E+00
    outer loop
      vertex 2.387400E+01 9.129000E+00 6.248000E+00
      vertex 2.387400E+01 9.129000E+00 8.250000E+00
      vertex 1.770400E+01 8.521000E+00 8.250000E+00
    endloop
  endfacet
  facet normal 9.806634E-02 -9.951799E-01 0.000000E+00
    outer loop
      vertex 2.387400E+01 9.129000E+00 6.248000E+00
      vertex 1.770400E+01 8.521000E+00 8.250000E+00
      vertex 1.770400E+01 8.521000E+00 6.248000E+00
    endloop
  endfacet
  facet normal 0.000000E+00 0.000000E+00 1.000000E+00
    outer loop
      vertex -1.046900E+01 -6.684300E+01 8.250000E+00
      vertex -5.347000E+00 -3.460400E+01 8.250000E+00
      vertex -7.147000E+00 -2.867000E+01 8.250000E+00
    endloop
  endfacet
  facet normal 2.902759E-01 -9.569430E-01 0.000000E+00
    outer loop
      vertex 1.770400E+01 8.521000E+00 6.248000E+00
      vertex 1.770400E+01 8.521000E+00 8.250000E+00
      vertex 1.177000E+01 6.721000E+00 8.250000E+00
    endloop
  endfacet
  facet normal 2.902759E-01 -9.569430E-01 0.000000E+00
    outer loop
      vertex 1.770400E+01 8.521000E+00 6.248000E+00
      vertex 1.177000E+01 6.721000E+00 8.250000E+00
      vertex 1.177000E+01 6.721000E+00 6.248000E+00
    endloop
  endfacet
  facet normal 0.000000E+00 0.000000E+00 1.000000E+00
    outer loop
      vertex -2.424000E+00 -4.007200E+01 8.250000E+00
      vertex -5.347000E+00 -3.460400E+01 8.250000E+00
      vertex -1.046900E+01 -6.684300E+01 8.250000E+00
    endloop
  endfacet
  facet normal 4.714335E-01 -8.819016E-01 0.000000E+00
    outer loop
      vertex 1.177000E+01 6.721000E+00 6.248000E+00
      vertex 1.177000E+01 6.721000E+00 8.250000E+00
      vertex 6.302000E+00 3.798000E+00 8.250000E+00
    endloop
  endfacet
  facet normal 4.714335E-01 -8.819016E-01 0.000000E+00
    outer loop
      vertex 1.177000E+01 6.721000E+00 6.248000E+00
      vertex 6.302000E+00 3.798000E+00 8.250000E+00
      vertex 6.302000E+00 3.798000E+00 6.248000E+00
    endloop
  endfacet
  facet normal 0.000000E+00 0.000000E+00 1.000000E+00
    outer loop
      vertex -2.424000E+00 -4.928000E+00 8.250000E+00
      vertex 1.509000E+00 -1.350000E-01 8.250000E+00
      vertex -1.046900E+01 2.184300E+01 8.250000E+00
    endloop
  endfacet
  facet normal 0.000000E+00 0.000000E+00 1.000000E+00
    outer loop
      vertex -5.347000E+00 -1.039600E+01 6.248000E+00
      vertex -7.147000E+00 -1.633000E+01 6.248000E+00
      vertex -2.424000E+00 -4.928000E+00 6.248000E+00
    endloop
  endfacet
  facet normal 0.000000E+00 0.000000E+00 1.000000E+00
    outer loop
      vertex -7.147000E+00 -1.633000E+01 6.248000E+00
      vertex -7.755000E+00 -2.250000E+01 6.248000E+00
      vertex -2.424000E+00 -4.928000E+00 6.248000E+00
    endloop
  endfacet
  facet normal 0.000000E+00 0.000000E+00 1.000000E+00
    outer loop
      vertex -7.755000E+00 -2.250000E+01 6.248000E+00
      vertex -7.147000E+00 -2.867000E+01 6.248000E+00
      vertex -2.424000E+00 -4.928000E+00 6.248000E+00
    endloop
  endfacet
  facet normal 0.000000E+00 0.000000E+00 1.000000E+00
    outer loop
      vertex -7.147000E+00 -2.867000E+01 6.248000E+00
      vertex -5.347000E+00 -3.460400E+01 6.248000E+00
      vertex -2.424000E+00 -4.928000E+00 6.248000E+00
    endloop
  endfacet
  facet normal 0.000000E+00 0.000000E+00 1.000000E+00
    outer loop
      vertex -2.424000E+00 -4.928000E+00 6.248000E+00
      vertex -5.347000E+00 -3.460400E+01 6.248000E+00
      vertex -2.424000E+00 -4.007200E+01 6.248000E+00
    endloop
  endfacet
  facet normal 0.000000E+00 0.000000E+00 1.000000E+00
    outer loop
      vertex 1.509000E+00 -4.486500E+01 6.248000E+00
      vertex 6.302000E+00 3.798000E+00 6.248000E+00
      vertex -2.424000E+00 -4.007200E+01 6.248000E+00
    endloop
  endfacet
  facet normal 0.000000E+00 0.000000E+00 1.000000E+00
    outer loop
      vertex -1.046900E+01 -6.684300E+01 8.250000E+00
      vertex 1.509000E+00 -4.486500E+01 8.250000E+00
      vertex -2.424000E+00 -4.007200E+01 8.250000E+00
    endloop
  endfacet
  facet normal 0.000000E+00 0.000000E+00 1.000000E+00
    outer loop
      vertex 6.302000E+00 -4.879800E+01 8.250000E+00
      vertex 1.509000E+00 -4.486500E+01 8.250000E+00
      vertex -1.046900E+01 -6.684300E+01 8.250000E+00
    endloop
  endfacet
  facet normal 0.000000E+00 0.000000E+00 1.000000E+00
    outer loop
      vertex 1.177000E+01 -5.172100E+01 8.250000E+00
      vertex 6.302000E+00 -4.879800E+01 8.250000E+00
      vertex -1.046900E+01 -6.684300E+01 8.250000E+00
    endloop
  endfacet
  facet normal 0.000000E+00 8.164896E-01 5.773602E-01
    outer loop
      vertex 6.387400E+01 2.750000E+01 2.500000E-01
      vertex -1.612600E+01 2.750000E+01 2.500000E-01
      vertex 5.821700E+01 2.184300E+01 8.250000E+00
    endloop
  endfacet
  facet normal 0.000000E+00 8.164896E-01 5.773602E-01
    outer loop
      vertex -1.046900E+01 2.184300E+01 8.250000E+00
      vertex 5.821700E+01 2.184300E+01 8.250000E+00
      vertex -1.612600E+01 2.750000E+01 2.500000E-01
    endloop
  endfacet
  facet normal 0.000000E+00 0.000000E+00 1.000000E+00
    outer loop
      vertex 1.770400E+01 -5.352100E+01 8.250000E+00
      vertex 1.177000E+01 -5.172100E+01 8.250000E+00
      vertex -1.046900E+01 -6.684300E+01 8.250000E+00
    endloop
  endfacet
  facet normal 0.000000E+00 1.000000E+00 0.000000E+00
    outer loop
      vertex 6.387400E+01 2.750000E+01 2.500000E-01
      vertex 6.387400E+01 2.750000E+01 3.000000E-03
      vertex -1.612600E+01 2.750000E+01 3.000000E-03
    endloop
  endfacet
  facet normal 0.000000E+00 1.000000E+00 0.000000E+00
    outer loop
      vertex 6.387400E+01 2.750000E+01 2.500000E-01
      vertex -1.612600E+01 2.750000E+01 3.000000E-03
      vertex -1.612600E+01 2.750000E+01 2.500000E-01
    endloop
  endfacet
  facet normal -8.164896E-01 0.000000E+00 5.773602E-01
    outer loop
      vertex -1.046900E+01 -6.684300E+01 8.250000E+00
      vertex -1.046900E+01 2.184300E+01 8.250000E+00
      vertex -1.612600E+01 -7.250000E+01 2.500000E-01
    endloop
  endfacet
  facet normal -8.164896E-01 0.000000E+00 5.773602E-01
    outer loop
      vertex -1.612600E+01 2.750000E+01 2.500000E-01
      vertex -1.612600E+01 -7.250000E+01 2.500000E-01
      vertex -1.046900E+01 2.184300E+01 8.250000E+00
    endloop
  endfacet
  facet normal -1.000000E+00 0.000000E+00 0.000000E+00
    outer loop
      vertex -1.612600E+01 2.750000E+01 2.500000E-01
      vertex -1.612600E+01 2.750000E+01 3.000000E-03
      vertex -1.612600E+01 -7.250000E+01 3.000000E-03
    endloop
  endfacet
  facet normal -1.000000E+00 0.000000E+00 0.000000E+00
    outer loop
      vertex -1.612600E+01 2.750000E+01 2.500000E-01
      vertex -1.612600E+01 -7.250000E+01 3.000000E-03
      vertex -1.612600E+01 -7.250000E+01 2.500000E-01
    endloop
  endfacet
  facet normal 0.000000E+00 -1.000000E+00 0.000000E+00
    outer loop
      vertex 6.387400E+01 -7.250000E+01 2.500000E-01
      vertex -1.612600E+01 -7.250000E+01 3.000000E-03
      vertex 6.387400E+01 -7.250000E+01 3.000000E-03
    endloop
  endfacet
  facet normal 0.000000E+00 0.000000E+00 1.000000E+00
    outer loop
      vertex 5.550300E+01 -2.250000E+01 8.250000E+00
      vertex 5.821700E+01 2.184300E+01 8.250000E+00
      vertex 5.489500E+01 -1.633000E+01 8.250000E+00
    endloop
  endfacet
  facet normal 0.000000E+00 0.000000E+00 1.000000E+00
    outer loop
      vertex 5.309500E+01 -1.039600E+01 8.250000E+00
      vertex 5.489500E+01 -1.633000E+01 8.250000E+00
      vertex 5.821700E+01 2.184300E+01 8.250000E+00
    endloop
  endfacet
  facet normal 0.000000E+00 -1.000000E+00 0.000000E+00
    outer loop
      vertex -1.612600E+01 -7.250000E+01 3.000000E-03
      vertex 6.387400E+01 -7.250000E+01 2.500000E-01
      vertex -1.612600E+01 -7.250000E+01 2.500000E-01
    endloop
  endfacet
  facet normal 0.000000E+00 -8.164896E-01 5.773602E-01
    outer loop
      vertex -1.046900E+01 -6.684300E+01 8.250000E+00
      vertex -1.612600E+01 -7.250000E+01 2.500000E-01
      vertex 5.821700E+01 -6.684300E+01 8.250000E+00
    endloop
  endfacet
  facet normal 0.000000E+00 -8.164896E-01 5.773602E-01
    outer loop
      vertex 6.387400E+01 -7.250000E+01 2.500000E-01
      vertex 5.821700E+01 -6.684300E+01 8.250000E+00
      vertex -1.612600E+01 -7.250000E+01 2.500000E-01
    endloop
  endfacet
  facet normal 0.000000E+00 0.000000E+00 1.000000E+00
    outer loop
      vertex 5.017200E+01 -4.928000E+00 8.250000E+00
      vertex 5.309500E+01 -1.039600E+01 8.250000E+00
      vertex 5.821700E+01 2.184300E+01 8.250000E+00
    endloop
  endfacet
  facet normal 0.000000E+00 0.000000E+00 1.000000E+00
    outer loop
      vertex 1.770400E+01 -5.352100E+01 6.248000E+00
      vertex 6.302000E+00 3.798000E+00 6.248000E+00
      vertex 1.177000E+01 -5.172100E+01 6.248000E+00
    endloop
  endfacet
  facet normal 0.000000E+00 0.000000E+00 1.000000E+00
    outer loop
      vertex 2.387400E+01 -5.412900E+01 6.248000E+00
      vertex 6.302000E+00 3.798000E+00 6.248000E+00
      vertex 1.770400E+01 -5.352100E+01 6.248000E+00
    endloop
  endfacet
  facet normal 0.000000E+00 0.000000E+00 1.000000E+00
    outer loop
      vertex 3.004400E+01 -5.352100E+01 6.248000E+00
      vertex 6.302000E+00 3.798000E+00 6.248000E+00
      vertex 2.387400E+01 -5.412900E+01 6.248000E+00
    endloop
  endfacet
  facet normal 0.000000E+00 0.000000E+00 1.000000E+00
    outer loop
      vertex 6.302000E+00 -4.879800E+01 6.248000E+00
      vertex 1.177000E+01 -5.172100E+01 6.248000E+00
      vertex 6.302000E+00 3.798000E+00 6.248000E+00
    endloop
  endfacet
  facet normal 0.000000E+00 0.000000E+00 1.000000E+00
    outer loop
      vertex 1.177000E+01 6.721000E+00 6.248000E+00
      vertex 6.302000E+00 3.798000E+00 6.248000E+00
      vertex 3.004400E+01 -5.352100E+01 6.248000E+00
    endloop
  endfacet
  facet normal 0.000000E+00 0.000000E+00 1.000000E+00
    outer loop
      vertex 1.509000E+00 -1.350000E-01 6.248000E+00
      vertex -2.424000E+00 -4.007200E+01 6.248000E+00
      vertex 6.302000E+00 3.798000E+00 6.248000E+00
    endloop
  endfacet
  facet normal 0.000000E+00 0.000000E+00 1.000000E+00
    outer loop
      vertex -2.424000E+00 -4.928000E+00 6.248000E+00
      vertex -2.424000E+00 -4.007200E+01 6.248000E+00
      vertex 1.509000E+00 -1.350000E-01 6.248000E+00
    endloop
  endfacet
  facet normal 0.000000E+00 0.000000E+00 1.000000E+00
    outer loop
      vertex 1.770400E+01 8.521000E+00 8.250000E+00
      vertex -1.046900E+01 2.184300E+01 8.250000E+00
      vertex 1.177000E+01 6.721000E+00 8.250000E+00
    endloop
  endfacet
  facet normal 0.000000E+00 0.000000E+00 1.000000E+00
    outer loop
      vertex -5.347000E+00 -1.039600E+01 8.250000E+00
      vertex -2.424000E+00 -4.928000E+00 8.250000E+00
      vertex -1.046900E+01 2.184300E+01 8.250000E+00
    endloop
  endfacet
  facet normal 0.000000E+00 0.000000E+00 1.000000E+00
    outer loop
      vertex 6.302000E+00 3.798000E+00 8.250000E+00
      vertex -1.046900E+01 2.184300E+01 8.250000E+00
      vertex 1.509000E+00 -1.350000E-01 8.250000E+00
    endloop
  endfacet
  facet normal 0.000000E+00 0.000000E+00 1.000000E+00
    outer loop
      vertex 5.821700E+01 2.184300E+01 8.250000E+00
      vertex -1.046900E+01 2.184300E+01 8.250000E+00
      vertex 2.387400E+01 9.129000E+00 8.250000E+00
    endloop
  endfacet
  facet normal 0.000000E+00 0.000000E+00 1.000000E+00
    outer loop
      vertex 3.004400E+01 8.521000E+00 8.250000E+00
      vertex 5.821700E+01 2.184300E+01 8.250000E+00
      vertex 2.387400E+01 9.129000E+00 8.250000E+00
    endloop
  endfacet
  facet normal 0.000000E+00 0.000000E+00 1.000000E+00
    outer loop
      vertex 1.770400E+01 8.521000E+00 8.250000E+00
      vertex 2.387400E+01 9.129000E+00 8.250000E+00
      vertex -1.046900E+01 2.184300E+01 8.250000E+00
    endloop
  endfacet
  facet normal 0.000000E+00 0.000000E+00 1.000000E+00
    outer loop
      vertex 6.302000E+00 3.798000E+00 8.250000E+00
      vertex 1.177000E+01 6.721000E+00 8.250000E+00
      vertex -1.046900E+01 2.184300E+01 8.250000E+00
    endloop
  endfacet
  facet normal 0.000000E+00 0.000000E+00 1.000000E+00
    outer loop
      vertex 3.004400E+01 -5.352100E+01 6.248000E+00
      vertex 3.597800E+01 -5.172100E+01 6.248000E+00
      vertex 4.144600E+01 -4.879800E+01 6.248000E+00
    endloop
  endfacet
  facet normal 0.000000E+00 0.000000E+00 1.000000E+00
    outer loop
      vertex 3.004400E+01 -5.352100E+01 6.248000E+00
      vertex 4.144600E+01 -4.879800E+01 6.248000E+00
      vertex 4.623900E+01 -4.486500E+01 6.248000E+00
    endloop
  endfacet
  facet normal 0.000000E+00 0.000000E+00 1.000000E+00
    outer loop
      vertex 3.004400E+01 -5.352100E+01 6.248000E+00
      vertex 4.623900E+01 -4.486500E+01 6.248000E+00
      vertex 5.017200E+01 -4.007200E+01 6.248000E+00
    endloop
  endfacet
  facet normal 0.000000E+00 0.000000E+00 1.000000E+00
    outer loop
      vertex 3.004400E+01 -5.352100E+01 6.248000E+00
      vertex 5.017200E+01 -4.007200E+01 6.248000E+00
      vertex 5.309500E+01 -3.460400E+01 6.248000E+00
    endloop
  endfacet
  facet normal 0.000000E+00 0.000000E+00 1.000000E+00
    outer loop
      vertex 3.004400E+01 -5.352100E+01 6.248000E+00
      vertex 5.309500E+01 -3.460400E+01 6.248000E+00
      vertex 5.489500E+01 -2.867000E+01 6.248000E+00
    endloop
  endfacet
  facet normal 0.000000E+00 0.000000E+00 1.000000E+00
    outer loop
      vertex 3.004400E+01 -5.352100E+01 6.248000E+00
      vertex 5.489500E+01 -2.867000E+01 6.248000E+00
      vertex 5.550300E+01 -2.250000E+01 6.248000E+00
    endloop
  endfacet
  facet normal 0.000000E+00 0.000000E+00 1.000000E+00
    outer loop
      vertex 3.004400E+01 -5.352100E+01 6.248000E+00
      vertex 5.550300E+01 -2.250000E+01 6.248000E+00
      vertex 5.489500E+01 -1.633000E+01 6.248000E+00
    endloop
  endfacet
  facet normal 0.000000E+00 0.000000E+00 1.000000E+00
    outer loop
      vertex 3.004400E+01 -5.352100E+01 6.248000E+00
      vertex 5.489500E+01 -1.633000E+01 6.248000E+00
      vertex 5.309500E+01 -1.039600E+01 6.248000E+00
    endloop
  endfacet
  facet normal 0.000000E+00 0.000000E+00 1.000000E+00
    outer loop
      vertex 3.004400E+01 -5.352100E+01 6.248000E+00
      vertex 5.309500E+01 -1.039600E+01 6.248000E+00
      vertex 5.017200E+01 -4.928000E+00 6.248000E+00
    endloop
  endfacet
  facet normal 0.000000E+00 0.000000E+00 1.000000E+00
    outer loop
      vertex 3.004400E+01 -5.352100E+01 6.248000E+00
      vertex 5.017200E+01 -4.928000E+00 6.248000E+00
      vertex 4.623900E+01 -1.350000E-01 6.248000E+00
    endloop
  endfacet
  facet normal 0.000000E+00 0.000000E+00 1.000000E+00
    outer loop
      vertex 3.004400E+01 -5.352100E+01 6.248000E+00
      vertex 4.623900E+01 -1.350000E-01 6.248000E+00
      vertex 4.144600E+01 3.798000E+00 6.248000E+00
    endloop
  endfacet
  facet normal 0.000000E+00 0.000000E+00 1.000000E+00
    outer loop
      vertex 3.004400E+01 8.521000E+00 8.250000E+00
      vertex 3.597800E+01 6.721000E+00 8.250000E+00
      vertex 5.821700E+01 2.184300E+01 8.250000E+00
    endloop
  endfacet
  facet normal 0.000000E+00 0.000000E+00 1.000000E+00
    outer loop
      vertex 3.597800E+01 6.721000E+00 8.250000E+00
      vertex 4.144600E+01 3.798000E+00 8.250000E+00
      vertex 5.821700E+01 2.184300E+01 8.250000E+00
    endloop
  endfacet
  facet normal 0.000000E+00 0.000000E+00 1.000000E+00
    outer loop
      vertex 4.144600E+01 3.798000E+00 8.250000E+00
      vertex 4.623900E+01 -1.350000E-01 8.250000E+00
      vertex 5.821700E+01 2.184300E+01 8.250000E+00
    endloop
  endfacet
  facet normal 0.000000E+00 0.000000E+00 1.000000E+00
    outer loop
      vertex 4.623900E+01 -1.350000E-01 8.250000E+00
      vertex 5.017200E+01 -4.928000E+00 8.250000E+00
      vertex 5.821700E+01 2.184300E+01 8.250000E+00
    endloop
  endfacet
  facet normal 0.000000E+00 0.000000E+00 1.000000E+00
    outer loop
      vertex 5.821700E+01 -6.684300E+01 8.250000E+00
      vertex 5.821700E+01 2.184300E+01 8.250000E+00
      vertex 5.550300E+01 -2.250000E+01 8.250000E+00
    endloop
  endfacet
  facet normal 0.000000E+00 0.000000E+00 1.000000E+00
    outer loop
      vertex 5.489500E+01 -2.867000E+01 8.250000E+00
      vertex 5.821700E+01 -6.684300E+01 8.250000E+00
      vertex 5.550300E+01 -2.250000E+01 8.250000E+00
    endloop
  endfacet
  facet normal 0.000000E+00 0.000000E+00 1.000000E+00
    outer loop
      vertex 5.489500E+01 -2.867000E+01 8.250000E+00
      vertex 5.309500E+01 -3.460400E+01 8.250000E+00
      vertex 5.821700E+01 -6.684300E+01 8.250000E+00
    endloop
  endfacet
  facet normal 0.000000E+00 0.000000E+00 1.000000E+00
    outer loop
      vertex 5.017200E+01 -4.007200E+01 8.250000E+00
      vertex 4.623900E+01 -4.486500E+01 8.250000E+00
      vertex 5.821700E+01 -6.684300E+01 8.250000E+00
    endloop
  endfacet
  facet normal 0.000000E+00 0.000000E+00 1.000000E+00
    outer loop
      vertex 4.144600E+01 -4.879800E+01 8.250000E+00
      vertex 3.597800E+01 -5.172100E+01 8.250000E+00
      vertex 5.821700E+01 -6.684300E+01 8.250000E+00
    endloop
  endfacet
  facet normal 0.000000E+00 0.000000E+00 1.000000E+00
    outer loop
      vertex 3.004400E+01 -5.352100E+01 8.250000E+00
      vertex 2.387400E+01 -5.412900E+01 8.250000E+00
      vertex 5.821700E+01 -6.684300E+01 8.250000E+00
    endloop
  endfacet
  facet normal 0.000000E+00 0.000000E+00 1.000000E+00
    outer loop
      vertex -1.046900E+01 -6.684300E+01 8.250000E+00
      vertex 5.821700E+01 -6.684300E+01 8.250000E+00
      vertex 2.387400E+01 -5.412900E+01 8.250000E+00
    endloop
  endfacet
  facet normal 0.000000E+00 0.000000E+00 1.000000E+00
    outer loop
      vertex 2.387400E+01 -5.412900E+01 8.250000E+00
      vertex 1.770400E+01 -5.352100E+01 8.250000E+00
      vertex -1.046900E+01 -6.684300E+01 8.250000E+00
    endloop
  endfacet
  facet normal 0.000000E+00 0.000000E+00 1.000000E+00
    outer loop
      vertex 3.597800E+01 -5.172100E+01 8.250000E+00
      vertex 3.004400E+01 -5.352100E+01 8.250000E+00
      vertex 5.821700E+01 -6.684300E+01 8.250000E+00
    endloop
  endfacet
  facet normal 0.000000E+00 0.000000E+00 1.000000E+00
    outer loop
      vertex 3.004400E+01 8.521000E+00 6.248000E+00
      vertex 3.004400E+01 -5.352100E+01 6.248000E+00
      vertex 3.597800E+01 6.721000E+00 6.248000E+00
    endloop
  endfacet
  facet normal 0.000000E+00 0.000000E+00 1.000000E+00
    outer loop
      vertex 2.387400E+01 9.129000E+00 6.248000E+00
      vertex 3.004400E+01 -5.352100E+01 6.248000E+00
      vertex 3.004400E+01 8.521000E+00 6.248000E+00
    endloop
  endfacet
  facet normal 0.000000E+00 0.000000E+00 1.000000E+00
    outer loop
      vertex 1.770400E+01 8.521000E+00 6.248000E+00
      vertex 3.004400E+01 -5.352100E+01 6.248000E+00
      vertex 2.387400E+01 9.129000E+00 6.248000E+00
    endloop
  endfacet
  facet normal 0.000000E+00 0.000000E+00 1.000000E+00
    outer loop
      vertex 1.177000E+01 6.721000E+00 6.248000E+00
      vertex 3.004400E+01 -5.352100E+01 6.248000E+00
      vertex 1.770400E+01 8.521000E+00 6.248000E+00
    endloop
  endfacet
  facet normal 0.000000E+00 0.000000E+00 1.000000E+00
    outer loop
      vertex 1.509000E+00 -4.486500E+01 6.248000E+00
      vertex 6.302000E+00 -4.879800E+01 6.248000E+00
      vertex 6.302000E+00 3.798000E+00 6.248000E+00
    endloop
  endfacet
  facet normal 0.000000E+00 0.000000E+00 1.000000E+00
    outer loop
      vertex 4.144600E+01 3.798000E+00 6.248000E+00
      vertex 3.597800E+01 6.721000E+00 6.248000E+00
      vertex 3.004400E+01 -5.352100E+01 6.248000E+00
    endloop
  endfacet
  facet normal 9.951799E-01 -9.806634E-02 0.000000E+00
    outer loop
      vertex -7.147000E+00 -1.633000E+01 6.248000E+00
      vertex -7.147000E+00 -1.633000E+01 8.250000E+00
      vertex -7.755000E+00 -2.250000E+01 8.250000E+00
    endloop
  endfacet
  facet normal 9.951799E-01 -9.806634E-02 0.000000E+00
    outer loop
      vertex -7.147000E+00 -1.633000E+01 6.248000E+00
      vertex -7.755000E+00 -2.250000E+01 8.250000E+00
      vertex -7.755000E+00 -2.250000E+01 6.248000E+00
    endloop
  endfacet
  facet normal 9.951799E-01 9.806634E-02 0.000000E+00
    outer loop
      vertex -7.147000E+00 -2.867000E+01 8.250000E+00
      vertex -7.147000E+00 -2.867000E+01 6.248000E+00
      vertex -7.755000E+00 -2.250000E+01 6.248000E+00
    endloop
  endfacet
  facet normal 9.951799E-01 9.806634E-02 0.000000E+00
    outer loop
      vertex -7.147000E+00 -2.867000E+01 8.250000E+00
      vertex -7.755000E+00 -2.250000E+01 6.248000E+00
      vertex -7.755000E+00 -2.250000E+01 8.250000E+00
    endloop
  endfacet
  facet normal 9.569430E-01 2.902759E-01 0.000000E+00
    outer loop
      vertex -5.347000E+00 -3.460400E+01 8.250000E+00
      vertex -5.347000E+00 -3.460400E+01 6.248000E+00
      vertex -7.147000E+00 -2.867000E+01 6.248000E+00
    endloop
  endfacet
  facet normal 9.569430E-01 2.902759E-01 0.000000E+00
    outer loop
      vertex -5.347000E+00 -3.460400E+01 8.250000E+00
      vertex -7.147000E+00 -2.867000E+01 6.248000E+00
      vertex -7.147000E+00 -2.867000E+01 8.250000E+00
    endloop
  endfacet
  facet normal 8.819016E-01 4.714335E-01 0.000000E+00
    outer loop
      vertex -2.424000E+00 -4.007200E+01 8.250000E+00
      vertex -2.424000E+00 -4.007200E+01 6.248000E+00
      vertex -5.347000E+00 -3.460400E+01 6.248000E+00
    endloop
  endfacet
  facet normal 8.819016E-01 4.714335E-01 0.000000E+00
    outer loop
      vertex -2.424000E+00 -4.007200E+01 8.250000E+00
      vertex -5.347000E+00 -3.460400E+01 6.248000E+00
      vertex -5.347000E+00 -3.460400E+01 8.250000E+00
    endloop
  endfacet
  facet normal 0.000000E+00 0.000000E+00 1.000000E+00
    outer loop
      vertex 4.144600E+01 -4.879800E+01 8.250000E+00
      vertex 5.821700E+01 -6.684300E+01 8.250000E+00
      vertex 4.623900E+01 -4.486500E+01 8.250000E+00
    endloop
  endfacet
  facet normal 7.730511E-01 6.343438E-01 0.000000E+00
    outer loop
      vertex -2.424000E+00 -4.007200E+01 8.250000E+00
      vertex 1.509000E+00 -4.486500E+01 6.248000E+00
      vertex -2.424000E+00 -4.007200E+01 6.248000E+00
    endloop
  endfacet
  facet normal 0.000000E+00 0.000000E+00 1.000000E+00
    outer loop
      vertex 5.017200E+01 -4.007200E+01 8.250000E+00
      vertex 5.821700E+01 -6.684300E+01 8.250000E+00
      vertex 5.309500E+01 -3.460400E+01 8.250000E+00
    endloop
  endfacet
  facet normal 6.343438E-01 -7.730511E-01 0.000000E+00
    outer loop
      vertex 6.302000E+00 3.798000E+00 6.248000E+00
      vertex 6.302000E+00 3.798000E+00 8.250000E+00
      vertex 1.509000E+00 -1.350000E-01 8.250000E+00
    endloop
  endfacet
  facet normal 6.343438E-01 -7.730511E-01 0.000000E+00
    outer loop
      vertex 6.302000E+00 3.798000E+00 6.248000E+00
      vertex 1.509000E+00 -1.350000E-01 8.250000E+00
      vertex 1.509000E+00 -1.350000E-01 6.248000E+00
    endloop
  endfacet
  facet normal 7.730511E-01 -6.343438E-01 0.000000E+00
    outer loop
      vertex -2.424000E+00 -4.928000E+00 8.250000E+00
      vertex -2.424000E+00 -4.928000E+00 6.248000E+00
      vertex 1.509000E+00 -1.350000E-01 8.250000E+00
    endloop
  endfacet
  facet normal 7.730511E-01 -6.343438E-01 0.000000E+00
    outer loop
      vertex 1.509000E+00 -1.350000E-01 6.248000E+00
      vertex 1.509000E+00 -1.350000E-01 8.250000E+00
      vertex -2.424000E+00 -4.928000E+00 6.248000E+00
    endloop
  endfacet
  facet normal 7.730511E-01 6.343438E-01 0.000000E+00
    outer loop
      vertex 1.509000E+00 -4.486500E+01 6.248000E+00
      vertex -2.424000E+00 -4.007200E+01 8.250000E+00
      vertex 1.509000E+00 -4.486500E+01 8.250000E+00
    endloop
  endfacet
  facet normal 6.343438E-01 7.730511E-01 0.000000E+00
    outer loop
      vertex 6.302000E+00 -4.879800E+01 8.250000E+00
      vertex 6.302000E+00 -4.879800E+01 6.248000E+00
      vertex 1.509000E+00 -4.486500E+01 6.248000E+00
    endloop
  endfacet
  facet normal 6.343438E-01 7.730511E-01 0.000000E+00
    outer loop
      vertex 6.302000E+00 -4.879800E+01 8.250000E+00
      vertex 1.509000E+00 -4.486500E+01 6.248000E+00
      vertex 1.509000E+00 -4.486500E+01 8.250000E+00
    endloop
  endfacet
  facet normal 4.714335E-01 8.819016E-01 0.000000E+00
    outer loop
      vertex 1.177000E+01 -5.172100E+01 8.250000E+00
      vertex 1.177000E+01 -5.172100E+01 6.248000E+00
      vertex 6.302000E+00 -4.879800E+01 6.248000E+00
    endloop
  endfacet
  facet normal 4.714335E-01 8.819016E-01 0.000000E+00
    outer loop
      vertex 1.177000E+01 -5.172100E+01 8.250000E+00
      vertex 6.302000E+00 -4.879800E+01 6.248000E+00
      vertex 6.302000E+00 -4.879800E+01 8.250000E+00
    endloop
  endfacet
  facet normal 2.902759E-01 9.569430E-01 0.000000E+00
    outer loop
      vertex 1.770400E+01 -5.352100E+01 8.250000E+00
      vertex 1.770400E+01 -5.352100E+01 6.248000E+00
      vertex 1.177000E+01 -5.172100E+01 6.248000E+00
    endloop
  endfacet
  facet normal 2.902759E-01 9.569430E-01 0.000000E+00
    outer loop
      vertex 1.770400E+01 -5.352100E+01 8.250000E+00
      vertex 1.177000E+01 -5.172100E+01 6.248000E+00
      vertex 1.177000E+01 -5.172100E+01 8.250000E+00
    endloop
  endfacet
  facet normal 9.806634E-02 9.951799E-01 0.000000E+00
    outer loop
      vertex 2.387400E+01 -5.412900E+01 6.248000E+00
      vertex 1.770400E+01 -5.352100E+01 6.248000E+00
      vertex 1.770400E+01 -5.352100E+01 8.250000E+00
    endloop
  endfacet
  facet normal 9.806634E-02 9.951799E-01 0.000000E+00
    outer loop
      vertex 2.387400E+01 -5.412900E+01 6.248000E+00
      vertex 1.770400E+01 -5.352100E+01 8.250000E+00
      vertex 2.387400E+01 -5.412900E+01 8.250000E+00
    endloop
  endfacet
  facet normal -9.806634E-02 9.951799E-01 0.000000E+00
    outer loop
      vertex 3.004400E+01 -5.352100E+01 8.250000E+00
      vertex 3.004400E+01 -5.352100E+01 6.248000E+00
      vertex 2.387400E+01 -5.412900E+01 6.248000E+00
    endloop
  endfacet
  facet normal -9.806634E-02 9.951799E-01 0.000000E+00
    outer loop
      vertex 3.004400E+01 -5.352100E+01 8.250000E+00
      vertex 2.387400E+01 -5.412900E+01 6.248000E+00
      vertex 2.387400E+01 -5.412900E+01 8.250000E+00
    endloop
  endfacet
  facet normal -9.951799E-01 -9.806634E-02 0.000000E+00
    outer loop
      vertex 5.489500E+01 -1.633000E+01 8.250000E+00
      vertex 5.489500E+01 -1.633000E+01 6.248000E+00
      vertex 5.550300E+01 -2.250000E+01 6.248000E+00
    endloop
  endfacet
  facet normal -9.951799E-01 -9.806634E-02 0.000000E+00
    outer loop
      vertex 5.489500E+01 -1.633000E+01 8.250000E+00
      vertex 5.550300E+01 -2.250000E+01 6.248000E+00
      vertex 5.550300E+01 -2.250000E+01 8.250000E+00
    endloop
  endfacet
  facet normal 0.000000E+00 0.000000E+00 1.000000E+00
    outer loop
      vertex -7.755000E+00 -2.250000E+01 8.250000E+00
      vertex -1.046900E+01 -6.684300E+01 8.250000E+00
      vertex -7.147000E+00 -2.867000E+01 8.250000E+00
    endloop
  endfacet
  facet normal 0.000000E+00 0.000000E+00 1.000000E+00
    outer loop
      vertex -1.046900E+01 2.184300E+01 8.250000E+00
      vertex -1.046900E+01 -6.684300E+01 8.250000E+00
      vertex -7.755000E+00 -2.250000E+01 8.250000E+00
    endloop
  endfacet
  facet normal -9.569430E-01 -2.902759E-01 0.000000E+00
    outer loop
      vertex 5.309500E+01 -1.039600E+01 8.250000E+00
      vertex 5.309500E+01 -1.039600E+01 6.248000E+00
      vertex 5.489500E+01 -1.633000E+01 6.248000E+00
    endloop
  endfacet
  facet normal -9.569430E-01 -2.902759E-01 0.000000E+00
    outer loop
      vertex 5.309500E+01 -1.039600E+01 8.250000E+00
      vertex 5.489500E+01 -1.633000E+01 6.248000E+00
      vertex 5.489500E+01 -1.633000E+01 8.250000E+00
    endloop
  endfacet
  facet normal 0.000000E+00 0.000000E+00 -1.000000E+00
    outer loop
      vertex 6.387400E+01 2.750000E+01 3.000000E-03
      vertex 6.387400E+01 -7.250000E+01 3.000000E-03
      vertex -1.612600E+01 -7.250000E+01 3.000000E-03
    endloop
  endfacet
  facet normal -8.819016E-01 -4.714335E-01 0.000000E+00
    outer loop
      vertex 5.017200E+01 -4.928000E+00 8.250000E+00
      vertex 5.017200E+01 -4.928000E+00 6.248000E+00
      vertex 5.309500E+01 -1.039600E+01 6.248000E+00
    endloop
  endfacet
  facet normal -8.819016E-01 -4.714335E-01 0.000000E+00
    outer loop
      vertex 5.017200E+01 -4.928000E+00 8.250000E+00
      vertex 5.309500E+01 -1.039600E+01 6.248000E+00
      vertex 5.309500E+01 -1.039600E+01 8.250000E+00
    endloop
  endfacet
  facet normal 0.000000E+00 0.000000E+00 -1.000000E+00
    outer loop
      vertex -1.612600E+01 2.750000E+01 3.000000E-03
      vertex 6.387400E+01 2.750000E+01 3.000000E-03
      vertex -1.612600E+01 -7.250000E+01 3.000000E-03
    endloop
  endfacet
  facet normal -7.730511E-01 -6.343438E-01 0.000000E+00
    outer loop
      vertex 4.623900E+01 -1.350000E-01 8.250000E+00
      vertex 4.623900E+01 -1.350000E-01 6.248000E+00
      vertex 5.017200E+01 -4.928000E+00 6.248000E+00
    endloop
  endfacet
  facet normal -7.730511E-01 -6.343438E-01 0.000000E+00
    outer loop
      vertex 4.623900E+01 -1.350000E-01 8.250000E+00
      vertex 5.017200E+01 -4.928000E+00 6.248000E+00
      vertex 5.017200E+01 -4.928000E+00 8.250000E+00
    endloop
  endfacet
  facet normal -6.343438E-01 -7.730511E-01 0.000000E+00
    outer loop
      vertex 4.623900E+01 -1.350000E-01 6.248000E+00
      vertex 4.623900E+01 -1.350000E-01 8.250000E+00
      vertex 4.144600E+01 3.798000E+00 6.248000E+00
    endloop
  endfacet
  facet normal 8.819016E-01 -4.714335E-01 0.000000E+00
    outer loop
      vertex -2.424000E+00 -4.928000E+00 6.248000E+00
      vertex -2.424000E+00 -4.928000E+00 8.250000E+00
      vertex -5.347000E+00 -1.039600E+01 8.250000E+00
    endloop
  endfacet
  facet normal 8.819016E-01 -4.714335E-01 0.000000E+00
    outer loop
      vertex -2.424000E+00 -4.928000E+00 6.248000E+00
      vertex -5.347000E+00 -1.039600E+01 8.250000E+00
      vertex -5.347000E+00 -1.039600E+01 6.248000E+00
    endloop
  endfacet
  facet normal -2.902759E-01 9.569430E-01 0.000000E+00
    outer loop
      vertex 3.004400E+01 -5.352100E+01 6.248000E+00
      vertex 3.004400E+01 -5.352100E+01 8.250000E+00
      vertex 3.597800E+01 -5.172100E+01 6.248000E+00
    endloop
  endfacet
  facet normal -2.902759E-01 9.569430E-01 0.000000E+00
    outer loop
      vertex 3.597800E+01 -5.172100E+01 8.250000E+00
      vertex 3.597800E+01 -5.172100E+01 6.248000E+00
      vertex 3.004400E+01 -5.352100E+01 8.250000E+00
    endloop
  endfacet
  facet normal 9.569430E-01 -2.902759E-01 0.000000E+00
    outer loop
      vertex -5.347000E+00 -1.039600E+01 6.248000E+00
      vertex -5.347000E+00 -1.039600E+01 8.250000E+00
      vertex -7.147000E+00 -1.633000E+01 8.250000E+00
    endloop
  endfacet
  facet normal 9.569430E-01 -2.902759E-01 0.000000E+00
    outer loop
      vertex -5.347000E+00 -1.039600E+01 6.248000E+00
      vertex -7.147000E+00 -1.633000E+01 8.250000E+00
      vertex -7.147000E+00 -1.633000E+01 6.248000E+00
    endloop
  endfacet
  facet normal -4.714335E-01 8.819016E-01 0.000000E+00
    outer loop
      vertex 4.144600E+01 -4.879800E+01 8.250000E+00
      vertex 4.144600E+01 -4.879800E+01 6.248000E+00
      vertex 3.597800E+01 -5.172100E+01 6.248000E+00
    endloop
  endfacet
  facet normal -4.714335E-01 8.819016E-01 0.000000E+00
    outer loop
      vertex 4.144600E+01 -4.879800E+01 8.250000E+00
      vertex 3.597800E+01 -5.172100E+01 6.248000E+00
      vertex 3.597800E+01 -5.172100E+01 8.250000E+00
    endloop
  endfacet
  facet normal -6.343438E-01 7.730511E-01 0.000000E+00
    outer loop
      vertex 4.623900E+01 -4.486500E+01 8.250000E+00
      vertex 4.623900E+01 -4.486500E+01 6.248000E+00
      vertex 4.144600E+01 -4.879800E+01 6.248000E+00
    endloop
  endfacet
  facet normal -6.343438E-01 7.730511E-01 0.000000E+00
    outer loop
      vertex 4.623900E+01 -4.486500E+01 8.250000E+00
      vertex 4.144600E+01 -4.879800E+01 6.248000E+00
      vertex 4.144600E+01 -4.879800E+01 8.250000E+00
    endloop
  endfacet
  facet normal -7.730511E-01 6.343438E-01 0.000000E+00
    outer loop
      vertex 5.017200E+01 -4.007200E+01 8.250000E+00
      vertex 5.017200E+01 -4.007200E+01 6.248000E+00
      vertex 4.623900E+01 -4.486500E+01 6.248000E+00
    endloop
  endfacet
  facet normal -7.730511E-01 6.343438E-01 0.000000E+00
    outer loop
      vertex 5.017200E+01 -4.007200E+01 8.250000E+00
      vertex 4.623900E+01 -4.486500E+01 6.248000E+00
      vertex 4.623900E+01 -4.486500E+01 8.250000E+00
    endloop
  endfacet
  facet normal -8.819016E-01 4.714335E-01 0.000000E+00
    outer loop
      vertex 5.309500E+01 -3.460400E+01 8.250000E+00
      vertex 5.309500E+01 -3.460400E+01 6.248000E+00
      vertex 5.017200E+01 -4.007200E+01 6.248000E+00
    endloop
  endfacet
  facet normal -8.819016E-01 4.714335E-01 0.000000E+00
    outer loop
      vertex 5.309500E+01 -3.460400E+01 8.250000E+00
      vertex 5.017200E+01 -4.007200E+01 6.248000E+00
      vertex 5.017200E+01 -4.007200E+01 8.250000E+00
    endloop
  endfacet
  facet normal -9.569430E-01 2.902759E-01 0.000000E+00
    outer loop
      vertex 5.489500E+01 -2.867000E+01 8.250000E+00
      vertex 5.489500E+01 -2.867000E+01 6.248000E+00
      vertex 5.309500E+01 -3.460400E+01 6.248000E+00
    endloop
  endfacet
  facet normal -9.569430E-01 2.902759E-01 0.000000E+00
    outer loop
      vertex 5.489500E+01 -2.867000E+01 8.250000E+00
      vertex 5.309500E+01 -3.460400E+01 6.248000E+00
      vertex 5.309500E+01 -3.460400E+01 8.250000E+00
    endloop
  endfacet
  facet normal -9.951799E-01 9.806634E-02 0.000000E+00
    outer loop
      vertex 5.550300E+01 -2.250000E+01 8.250000E+00
      vertex 5.550300E+01 -2.250000E+01 6.248000E+00
      vertex 5.489500E+01 -2.867000E+01 6.248000E+00
    endloop
  endfacet
  facet normal -9.951799E-01 9.806634E-02 0.000000E+00
    outer loop
      vertex 5.550300E+01 -2.250000E+01 8.250000E+00
      vertex 5.489500E+01 -2.867000E+01 6.248000E+00
      vertex 5.489500E+01 -2.867000E+01 8.250000E+00
    endloop
  endfacet
endsolid 
